SplineFontDB: 3.0
FontName: DOF-2-Regular
FullName: DOF-2 Regular
FamilyName: DOF-2
Weight: Regular
Copyright: DOF is a typeface to interface the exhibition The Weathers They Live In and its contributions. DOF is created by Paul Bernhard and written in the typographic language METAFONT by Donald E. Knuth. Different cuts will be rendered during the course of TWTLI.\n\nAll versions of DOF are free to use. \n\nDOF source and outline files: https://github.com/paulbernhard/dof\n\nThe METAFONT files were traced via mftrace: http://lilypond.org/mftrace/
Version: 1.0
ItalicAngle: 0
UnderlinePosition: -91.0222
UnderlineWidth: 45.5111
Ascent: 819
Descent: 205
InvalidEm: 0
LayerCount: 2
Layer: 0 0 "Back" 1
Layer: 1 0 "Fore" 0
OS2Version: 0
OS2_WeightWidthSlopeOnly: 0
OS2_UseTypoMetrics: 0
CreationTime: 1495032497
ModificationTime: 1495043657
OS2TypoAscent: 0
OS2TypoAOffset: 1
OS2TypoDescent: 0
OS2TypoDOffset: 1
OS2TypoLinegap: 0
OS2WinAscent: 0
OS2WinAOffset: 1
OS2WinDescent: 0
OS2WinDOffset: 1
HheadAscent: 0
HheadAOffset: 1
HheadDescent: 0
HheadDOffset: 1
OS2Vendor: 'PfEd'
MarkAttachClasses: 1
DEI: 91125
Encoding: ISO8859-1
UnicodeInterp: none
NameList: AGL For New Fonts
DisplaySize: -48
AntiAlias: 1
FitToEm: 0
WinInfo: 65 13 10
BeginPrivate: 3
lenIV 1 4
BlueValues 2 []
ForceBold 5 false
EndPrivate
BeginChars: 260 102

StartChar: exclam
Encoding: 33 33 1
Width: 303
VWidth: 910
Flags: HW
LayerCount: 2
Fore
SplineSet
141 817 m 0
 164 823 187 809 192 786 c 0
 193 782 193 696 193 466 c 0
 193 119 193 145 188 135 c 0
 183 125 170 116 157 114 c 0
 142 111 123 120 116 135 c 0
 111 145 110 119 110 466 c 0
 110 747 110 782 112 787 c 0
 116 802 126 813 141 817 c 0
142 82 m 0
 164 87 186 74 191 51 c 0
 198 26 178 0 151 0 c 0
 125 0 105 26 111 51 c 0
 116 66 127 78 142 82 c 0
EndSplineSet
EndChar

StartChar: quotedbl
Encoding: 34 34 2
Width: 303
VWidth: 910
Flags: HW
LayerCount: 2
Fore
SplineSet
83 817 m 0
 106 823 129 809 134 786 c 0
 135 783 135 762 135 716 c 0
 135 646 135 647 130 637 c 0
 115 608 71 608 56 637 c 0
 51 647 52 646 52 717 c 0
 52 773 52 782 54 787 c 0
 58 802 68 813 83 817 c 0
199 817 m 0
 222 823 245 809 250 786 c 0
 251 783 251 762 251 716 c 0
 251 646 252 647 247 637 c 0
 232 608 188 608 173 637 c 0
 168 647 168 646 168 717 c 0
 168 773 168 782 170 787 c 0
 174 802 184 813 199 817 c 0
EndSplineSet
EndChar

StartChar: numbersign
Encoding: 35 35 3
Width: 607
VWidth: 910
Flags: HW
LayerCount: 2
Fore
SplineSet
250 613 m 0
 260 616 271 614 281 609 c 0
 288 605 294 599 299 590 c 0
 302 585 301 581 302 575 c 2
 302 567 l 1
 286 510 l 2
 276 478 269 452 269 451 c 2
 347 451 l 1
 424 451 l 2
 424 454 465 590 467 593 c 0
 473 606 488 614 503 614 c 0
 527 614 546 593 544 570 c 0
 543 566 537 541 528 510 c 0
 519 481 512 455 511 454 c 2
 511 451 l 1
 528 451 l 2
 543 450 545 451 550 449 c 0
 562 444 571 434 575 422 c 0
 577 416 577 404 575 398 c 0
 571 386 562 376 550 371 c 0
 545 369 543 370 515 369 c 2
 486 369 l 1
 468 308 l 2
 458 274 450 246 450 246 c 1
 465 246 l 2
 481 246 486 245 495 240 c 0
 502 236 507 230 512 221 c 0
 515 215 516 214 516 205 c 0
 516 195 515 194 512 188 c 0
 507 179 502 172 495 168 c 0
 485 163 483 163 452 163 c 2
 425 163 l 1
 423 157 l 2
 422 154 413 123 403 89 c 0
 393 54 384 25 382 22 c 0
 379 17 372 8 366 5 c 0
 357 0 346 -1 336 1 c 0
 324 5 314 13 309 25 c 0
 306 30 306 33 305 39 c 2
 305 48 l 1
 321 105 l 2
 331 137 339 162 339 163 c 2
 261 163 l 1
 183 163 l 2
 183 160 142 25 140 22 c 0
 134 9 119 0 104 0 c 0
 80 0 61 22 63 45 c 0
 64 49 70 74 79 105 c 0
 88 134 95 159 96 160 c 2
 96 163 l 1
 79 163 l 2
 64 164 62 164 57 166 c 0
 45 171 36 180 32 192 c 0
 30 198 30 211 32 217 c 0
 36 229 45 238 57 243 c 0
 62 245 64 245 92 246 c 2
 121 247 l 1
 139 308 l 2
 149 341 157 369 157 369 c 1
 142 369 l 2
 126 369 121 369 112 374 c 0
 105 378 100 384 95 393 c 0
 92 399 92 401 92 411 c 0
 92 420 92 421 95 427 c 0
 100 436 105 442 112 446 c 0
 122 451 124 451 155 451 c 2
 182 451 l 1
 184 458 l 2
 185 461 194 491 204 526 c 0
 214 560 223 590 225 593 c 0
 230 602 239 610 250 613 c 0
399 366 m 2
 400 369 l 1
 321 369 l 2
 260 369 244 369 244 368 c 0
 243 367 236 340 226 308 c 0
 217 275 209 248 208 247 c 0
 208 246 223 246 286 246 c 2
 363 247 l 1
 380 305 l 2
 390 337 398 364 399 366 c 2
EndSplineSet
EndChar

StartChar: dollar
Encoding: 36 36 4
Width: 546
VWidth: 910
Flags: HW
LayerCount: 2
Fore
SplineSet
263 817 m 0
 286 823 309 809 314 786 c 0
 315 783 315 772 315 758 c 2
 315 734 l 1
 319 734 l 2
 322 733 329 733 335 733 c 0
 371 731 407 724 429 713 c 0
 457 698 476 671 483 635 c 0
 486 622 486 601 484 594 c 0
 479 583 471 574 459 569 c 0
 453 566 438 566 431 568 c 0
 424 571 416 578 411 583 c 0
 406 591 404 596 403 609 c 0
 402 623 400 630 395 635 c 0
 392 638 390 639 383 642 c 0
 368 647 341 650 322 650 c 2
 315 650 l 1
 315 545 l 1
 315 440 l 1
 331 435 l 2
 407 410 450 380 471 335 c 0
 476 323 479 315 483 300 c 0
 485 290 485 285 486 269 c 0
 487 203 474 160 445 131 c 0
 420 106 388 92 339 87 c 0
 333 87 324 86 320 86 c 2
 315 86 l 1
 315 62 l 2
 315 47 315 36 314 33 c 0
 310 15 293 0 274 0 c 0
 255 0 239 13 234 32 c 0
 232 36 232 42 232 61 c 2
 232 86 l 1
 228 86 l 2
 225 87 217 86 211 86 c 0
 175 88 140 96 118 106 c 0
 90 121 71 148 64 184 c 0
 61 197 61 218 63 225 c 0
 68 236 76 245 88 250 c 0
 94 253 109 253 116 251 c 0
 123 248 131 242 136 237 c 0
 141 229 143 223 144 210 c 0
 145 196 147 189 152 184 c 0
 155 181 157 180 164 177 c 0
 179 172 206 169 225 169 c 2
 232 169 l 1
 232 273 l 1
 232 378 l 1
 227 380 l 2
 214 384 192 391 178 396 c 0
 122 418 87 446 69 484 c 0
 64 496 61 504 57 519 c 0
 55 530 56 531 56 560 c 0
 56 591 56 599 60 619 c 0
 64 634 67 642 73 655 c 0
 88 684 110 704 144 718 c 0
 163 725 202 733 225 733 c 2
 232 733 l 1
 232 757 l 2
 232 777 232 783 234 787 c 0
 238 802 248 813 263 817 c 0
232 557 m 1
 232 650 l 1
 226 650 l 2
 210 650 186 646 174 641 c 0
 156 634 147 623 142 605 c 0
 139 594 138 584 137 565 c 0
 137 546 138 535 141 526 c 0
 149 502 175 484 223 468 c 2
 232 464 l 1
 232 557 l 1
333 346 m 0
 326 349 319 351 318 352 c 2
 315 352 l 1
 315 260 l 1
 315 169 l 1
 324 169 l 2
 344 171 362 175 374 181 c 0
 394 190 401 208 403 254 c 0
 403 273 403 284 400 293 c 0
 393 314 370 331 333 346 c 0
EndSplineSet
EndChar

StartChar: percent
Encoding: 37 37 5
Width: 667
VWidth: 910
Flags: HW
LayerCount: 2
Fore
SplineSet
124 824 m 0
 139 825 193 825 206 823 c 0
 220 820 229 817 242 811 c 0
 267 798 282 779 289 745 c 0
 290 739 290 732 290 699 c 0
 290 669 290 658 289 648 c 0
 282 591 263 559 228 542 c 0
 210 533 192 529 167 528 c 0
 128 527 97 535 75 553 c 0
 56 568 42 592 35 624 c 0
 30 647 31 657 31 699 c 0
 31 732 31 739 32 745 c 0
 39 778 53 797 78 810 c 0
 93 818 104 821 124 824 c 0
188 741 m 0
 183 742 170 742 159 742 c 0
 126 742 117 740 115 735 c 0
 114 733 114 724 113 711 c 0
 112 667 117 632 124 621 c 0
 129 615 139 611 161 612 c 0
 177 612 188 612 193 616 c 0
 199 621 204 633 207 655 c 0
 208 665 208 676 208 700 c 0
 209 735 207 736 201 738 c 0
 199 739 193 740 188 741 c 0
585 818 m 0
 590 819 600 819 605 817 c 0
 630 811 645 783 633 760 c 0
 630 754 106 17 101 12 c 0
 94 6 82 0 72 0 c 0
 42 0 21 33 35 59 c 0
 38 65 561 802 566 807 c 0
 571 811 579 816 585 818 c 0
484 290 m 0
 495 291 518 291 530 290 c 0
 587 283 619 253 632 195 c 0
 637 172 636 162 636 121 c 0
 636 87 636 81 635 75 c 0
 628 42 614 22 589 9 c 0
 566 -3 546 -6 499 -5 c 0
 460 -4 446 -2 426 8 c 0
 400 21 385 41 378 75 c 0
 377 81 377 87 377 121 c 0
 377 162 376 172 381 195 c 0
 389 235 408 262 437 277 c 0
 451 284 467 288 484 290 c 0
529 207 m 0
 523 208 498 209 491 208 c 0
 476 206 472 202 468 195 c 0
 462 180 460 160 460 120 c 0
 459 84 460 83 466 81 c 0
 472 78 486 77 507 77 c 0
 527 77 541 78 547 81 c 0
 551 82 552 83 553 85 c 0
 555 90 554 127 553 146 c 0
 552 166 551 179 547 188 c 0
 543 200 541 204 529 207 c 0
EndSplineSet
EndChar

StartChar: ampersand
Encoding: 38 38 6
Width: 546
VWidth: 910
Flags: HW
LayerCount: 2
Fore
SplineSet
246 824 m 0
 253 825 308 824 316 823 c 0
 377 816 415 790 436 743 c 0
 451 710 456 670 455 607 c 0
 454 585 454 579 452 571 c 0
 440 507 403 460 326 410 c 0
 318 405 311 400 311 400 c 2
 311 399 373 302 429 215 c 1
 432 208 l 1
 435 210 l 2
 443 216 455 220 465 218 c 0
 481 215 495 203 499 187 c 0
 502 177 501 145 497 122 c 0
 496 116 495 110 495 109 c 1
 496 109 504 98 512 84 c 0
 529 58 531 53 531 41 c 0
 531 17 511 -2 487 0 c 0
 472 1 462 7 453 21 c 0
 450 26 447 31 447 31 c 1
 447 31 444 29 440 26 c 0
 415 10 386 1 344 -4 c 0
 320 -6 236 -6 217 -4 c 0
 169 2 137 17 112 42 c 0
 100 53 92 65 85 80 c 0
 67 115 60 157 61 224 c 0
 62 247 62 253 64 261 c 0
 72 303 89 335 122 368 c 0
 139 385 158 401 183 417 c 0
 189 422 195 425 195 425 c 2
 196 425 173 460 147 502 c 0
 121 544 97 580 96 583 c 0
 91 591 91 594 91 618 c 0
 91 694 102 740 129 775 c 0
 152 802 187 818 232 823 c 0
 237 824 243 824 246 824 c 0
313 739 m 0
 302 741 259 742 245 741 c 0
 220 738 204 733 195 723 c 0
 190 718 184 705 181 694 c 0
 176 679 174 649 174 624 c 2
 174 614 l 1
 219 542 l 2
 244 503 266 471 266 471 c 2
 267 469 297 489 312 501 c 0
 326 513 346 531 353 542 c 0
 364 557 369 573 371 590 c 0
 373 606 373 650 369 674 c 0
 365 701 357 721 344 730 c 0
 338 734 326 737 313 739 c 0
321 229 m 0
 276 298 240 355 240 355 c 2
 239 355 234 352 228 348 c 0
 174 311 150 279 145 242 c 0
 143 225 143 179 147 155 c 0
 151 130 158 112 169 101 c 0
 177 93 183 90 195 86 c 0
 214 80 238 77 290 77 c 0
 337 78 358 81 378 87 c 0
 390 92 402 100 401 103 c 2
 401 103 365 160 321 229 c 0
EndSplineSet
EndChar

StartChar: parenleft
Encoding: 40 40 7
Width: 212
VWidth: 910
Flags: HW
LayerCount: 2
Fore
SplineSet
130 848 m 0
 136 849 145 849 150 847 c 0
 171 842 185 822 181 801 c 0
 178 784 165 770 147 767 c 2
 141 765 l 1
 137 758 l 2
 132 749 130 738 127 720 c 0
 121 686 118 645 115 576 c 0
 113 534 113 285 115 244 c 0
 119 139 125 85 137 61 c 2
 141 54 l 1
 147 52 l 1
 181 47 193 7 170 -17 c 0
 161 -26 150 -31 136 -30 c 0
 109 -28 85 -14 69 11 c 0
 46 46 37 106 32 237 c 0
 30 278 30 541 32 583 c 0
 37 727 48 784 78 820 c 0
 90 835 111 846 130 848 c 0
EndSplineSet
EndChar

StartChar: parenright
Encoding: 41 41 8
Width: 212
VWidth: 910
Flags: HW
LayerCount: 2
Fore
SplineSet
61 847 m 0
 67 850 83 850 92 847 c 0
 112 842 130 827 143 808 c 0
 166 773 175 713 180 583 c 0
 182 541 182 278 180 237 c 0
 176 147 172 97 162 59 c 0
 152 18 133 -8 107 -22 c 0
 93 -28 76 -32 64 -29 c 0
 42 -24 27 -4 31 18 c 0
 34 35 48 49 66 52 c 2
 72 54 l 1
 76 61 l 2
 81 70 83 81 86 99 c 0
 92 133 94 174 97 244 c 0
 99 285 99 534 97 576 c 0
 93 680 88 734 76 758 c 2
 72 765 l 1
 66 767 l 2
 48 770 34 784 31 801 c 0
 27 822 40 842 61 847 c 0
EndSplineSet
EndChar

StartChar: asterisk
Encoding: 42 42 9
Width: 485
VWidth: 910
Flags: HW
LayerCount: 2
Fore
SplineSet
232 817 m 0
 255 823 278 809 283 786 c 0
 284 783 284 772 284 757 c 2
 284 732 l 1
 303 743 l 2
 329 758 332 759 341 760 c 0
 359 761 374 751 381 736 c 0
 387 724 386 712 380 700 c 0
 375 691 371 687 347 673 c 0
 330 663 326 660 327 659 c 0
 328 659 338 653 349 647 c 0
 372 634 376 629 381 620 c 0
 386 607 386 596 381 583 c 0
 376 575 370 569 362 564 c 0
 353 559 346 559 337 561 c 0
 331 563 327 564 308 575 c 0
 295 581 285 588 285 588 c 2
 284 588 284 578 284 563 c 0
 284 536 284 532 279 523 c 0
 264 494 221 494 206 523 c 0
 201 532 201 536 201 563 c 0
 201 578 201 588 200 588 c 2
 200 588 190 581 177 575 c 0
 158 564 154 563 148 561 c 0
 139 559 132 559 123 564 c 0
 115 569 109 575 104 583 c 0
 99 596 99 607 104 620 c 0
 109 629 114 634 137 647 c 0
 148 653 157 659 158 659 c 0
 159 660 155 663 138 673 c 0
 114 687 110 691 105 700 c 0
 99 712 98 724 104 736 c 0
 111 751 126 761 144 760 c 0
 153 759 156 758 182 743 c 2
 201 732 l 1
 201 757 l 2
 201 777 201 783 203 787 c 0
 207 802 217 813 232 817 c 0
EndSplineSet
EndChar

StartChar: plus
Encoding: 43 43 10
Width: 607
VWidth: 910
Flags: HW
LayerCount: 2
Fore
SplineSet
293 613 m 0
 316 619 339 605 344 582 c 0
 345 578 345 544 345 462 c 2
 345 349 l 1
 445 349 l 1
 545 349 l 1
 550 346 l 2
 562 341 571 331 575 319 c 0
 577 313 577 301 575 295 c 0
 571 283 562 274 550 269 c 2
 545 267 l 1
 445 266 l 1
 345 266 l 1
 345 152 l 2
 345 70 345 37 344 33 c 0
 340 15 323 0 304 0 c 0
 285 0 269 13 264 32 c 0
 262 37 262 51 262 151 c 2
 262 266 l 1
 162 266 l 1
 63 267 l 1
 57 269 l 2
 45 274 36 283 32 295 c 0
 30 301 30 313 32 319 c 0
 36 331 45 341 57 346 c 2
 63 349 l 1
 162 349 l 1
 262 349 l 1
 262 463 l 2
 262 563 262 578 264 583 c 0
 268 598 278 609 293 613 c 0
EndSplineSet
EndChar

StartChar: comma
Encoding: 44 44 11
Width: 182
VWidth: 910
Flags: HW
LayerCount: 2
Fore
SplineSet
81 81 m 0
 104 87 127 73 132 50 c 0
 134 41 133 16 129 -5 c 0
 124 -36 115 -65 101 -91 c 0
 90 -114 78 -122 58 -121 c 0
 51 -120 49 -121 43 -117 c 0
 30 -111 22 -100 20 -86 c 0
 18 -76 20 -70 27 -55 c 0
 42 -24 48 -1 50 36 c 0
 51 51 52 57 57 65 c 0
 62 73 71 79 81 81 c 0
EndSplineSet
EndChar

StartChar: hyphen
Encoding: 45 45 12
Width: 607
VWidth: 910
Flags: HW
LayerCount: 2
Fore
SplineSet
61 347 m 0
 66 349 98 349 306 349 c 2
 545 349 l 1
 550 346 l 2
 562 341 571 331 575 319 c 0
 577 313 577 301 575 295 c 0
 571 283 562 274 550 269 c 2
 545 267 l 1
 307 266 l 2
 139 266 67 266 63 267 c 0
 42 272 27 292 31 313 c 0
 34 329 46 343 61 347 c 0
EndSplineSet
EndChar

StartChar: period
Encoding: 46 46 13
Width: 182
VWidth: 910
Flags: HW
LayerCount: 2
Fore
SplineSet
80 81 m 0
 106 88 133 68 133 42 c 0
 133 23 120 7 101 2 c 0
 72 -6 44 20 50 50 c 0
 54 65 65 77 80 81 c 0
EndSplineSet
EndChar

StartChar: slash
Encoding: 47 47 14
Width: 425
VWidth: 910
Flags: HW
LayerCount: 2
Fore
SplineSet
343 818 m 0
 352 820 364 819 373 814 c 0
 388 807 397 788 394 772 c 0
 393 766 112 30 107 21 c 0
 101 8 87 0 72 0 c 0
 47 0 26 22 31 47 c 0
 32 51 78 175 173 423 c 0
 251 626 316 794 317 797 c 0
 322 806 332 814 343 818 c 0
EndSplineSet
EndChar

StartChar: zero
Encoding: 48 48 15
Width: 546
VWidth: 910
Flags: HW
LayerCount: 2
Fore
SplineSet
246 823 m 0
 295 828 347 819 385 796 c 0
 410 782 433 761 446 737 c 0
 469 697 484 633 489 550 c 0
 493 489 493 330 489 270 c 0
 483 174 465 105 436 66 c 0
 423 50 404 34 385 23 c 0
 319 -14 227 -14 161 23 c 0
 136 37 113 58 100 82 c 0
 77 122 62 186 57 270 c 0
 53 330 53 489 57 550 c 0
 63 646 81 714 110 753 c 0
 139 791 189 818 246 823 c 0
290 741 m 0
 245 746 203 733 181 708 c 0
 174 701 170 693 165 680 c 0
 150 645 143 599 139 522 c 0
 137 493 137 326 139 297 c 0
 143 220 150 174 165 139 c 0
 170 126 174 118 181 111 c 0
 203 86 245 73 290 78 c 0
 329 82 359 98 374 123 c 0
 387 145 397 187 402 238 c 0
 407 284 408 309 408 410 c 0
 408 511 407 535 402 582 c 0
 397 632 387 674 374 696 c 0
 359 721 329 737 290 741 c 0
EndSplineSet
EndChar

StartChar: one
Encoding: 49 49 16
Width: 379
VWidth: 910
Flags: HW
LayerCount: 2
Fore
SplineSet
268 817 m 0
 291 823 314 809 319 786 c 0
 320 780 320 39 319 33 c 0
 315 14 297 0 279 0 c 0
 263 0 246 10 240 25 c 2
 238 31 l 1
 237 360 l 1
 237 691 l 1
 160 629 l 2
 116 594 81 566 78 564 c 0
 71 560 64 560 56 560 c 0
 36 562 20 578 18 598 c 0
 17 610 21 621 29 629 c 0
 34 634 254 811 259 814 c 0
 262 816 265 817 268 817 c 0
EndSplineSet
EndChar

StartChar: two
Encoding: 50 50 17
Width: 546
VWidth: 910
Flags: HW
LayerCount: 2
Fore
SplineSet
227 824 m 0
 242 825 304 825 316 824 c 0
 352 821 376 816 400 805 c 0
 415 797 425 789 436 778 c 0
 463 751 479 715 484 662 c 0
 486 647 486 588 485 573 c 0
 481 534 470 495 451 460 c 0
 423 410 386 366 303 289 c 0
 254 243 220 210 201 185 c 0
 176 153 157 119 151 92 c 0
 150 88 149 86 148 85 c 0
 148 83 156 83 299 83 c 0
 464 83 454 82 464 77 c 0
 474 72 482 60 485 48 c 0
 488 32 479 12 464 5 c 0
 454 0 465 0 273 0 c 0
 127 0 97 0 92 1 c 0
 80 5 70 14 65 25 c 0
 62 30 61 31 61 42 c 0
 60 86 75 139 100 184 c 0
 127 231 164 273 244 348 c 0
 281 383 318 420 333 437 c 0
 377 488 397 531 402 579 c 0
 403 592 403 620 402 640 c 0
 399 682 393 704 378 719 c 0
 361 736 336 742 270 742 c 0
 224 742 196 740 178 735 c 0
 157 729 152 722 147 706 c 0
 145 699 144 683 144 674 c 0
 144 656 135 641 120 634 c 0
 113 630 113 631 103 631 c 0
 92 631 92 630 85 634 c 0
 73 639 65 650 62 663 c 0
 59 678 63 715 70 736 c 0
 74 748 83 765 90 774 c 0
 115 805 159 821 227 824 c 0
EndSplineSet
EndChar

StartChar: three
Encoding: 51 51 18
Width: 546
VWidth: 910
Flags: HW
LayerCount: 2
Fore
SplineSet
206 827 m 0
 217 828 246 828 257 826 c 0
 263 826 280 826 295 825 c 0
 340 824 367 819 390 810 c 0
 453 785 486 733 491 647 c 0
 492 628 492 565 491 546 c 0
 487 492 475 454 450 424 c 0
 446 420 442 416 440 413 c 2
 436 411 l 1
 443 402 l 2
 466 379 480 349 487 309 c 0
 491 286 492 277 492 223 c 0
 492 160 489 146 482 115 c 0
 470 70 444 35 407 16 c 0
 376 1 351 -3 296 -5 c 0
 281 -5 264 -7 256 -8 c 0
 230 -11 191 -8 164 -3 c 0
 150 0 132 4 123 8 c 0
 93 18 71 42 64 71 c 0
 61 81 60 94 62 100 c 0
 67 121 87 137 108 133 c 0
 120 131 133 122 138 112 c 0
 141 107 144 99 144 94 c 0
 144 92 145 90 146 89 c 0
 150 85 172 79 193 76 c 0
 209 73 244 74 259 76 c 0
 265 77 275 77 284 77 c 0
 315 77 342 81 357 86 c 0
 388 96 402 117 407 163 c 0
 409 184 409 262 407 283 c 0
 402 329 388 350 357 360 c 0
 342 365 316 369 284 369 c 0
 273 369 267 369 263 370 c 0
 251 374 241 382 236 393 c 0
 233 398 233 400 233 411 c 0
 233 421 233 422 236 427 c 0
 241 438 251 447 263 451 c 0
 267 452 273 451 284 451 c 0
 346 451 375 460 390 484 c 0
 404 504 409 532 409 597 c 0
 409 661 404 689 390 709 c 0
 375 733 346 742 285 742 c 0
 275 742 265 743 259 744 c 0
 244 746 209 746 193 743 c 0
 172 740 150 734 146 730 c 0
 145 729 144 727 144 725 c 0
 144 720 141 712 138 707 c 0
 133 697 120 688 108 686 c 0
 92 683 73 693 66 708 c 0
 62 715 61 723 61 733 c 0
 63 762 81 790 107 805 c 0
 126 815 170 824 206 827 c 0
EndSplineSet
EndChar

StartChar: four
Encoding: 52 52 19
Width: 500
VWidth: 910
Flags: HW
LayerCount: 2
Fore
SplineSet
179 818 m 0
 188 820 200 819 209 814 c 0
 223 807 232 789 230 774 c 0
 230 770 153 543 146 525 c 2
 145 522 l 1
 192 522 l 1
 239 522 l 1
 239 550 l 2
 239 566 239 579 240 582 c 0
 244 601 262 614 281 614 c 0
 299 614 317 601 321 582 c 0
 322 579 322 566 322 550 c 2
 322 522 l 1
 380 522 l 1
 439 522 l 1
 443 520 l 2
 455 515 465 505 469 493 c 0
 471 487 471 475 469 469 c 0
 465 457 455 447 443 442 c 2
 439 441 l 1
 380 440 l 1
 322 440 l 1
 322 238 l 2
 322 92 322 37 321 33 c 0
 317 15 300 0 281 0 c 0
 262 0 246 13 241 32 c 0
 239 37 239 60 239 238 c 2
 239 440 l 1
 160 440 l 2
 75 440 77 439 67 444 c 0
 60 449 54 454 50 463 c 2
 46 471 l 1
 46 481 l 1
 46 492 l 1
 98 642 l 2
 126 724 151 793 152 796 c 0
 157 805 168 814 179 818 c 0
EndSplineSet
EndChar

StartChar: five
Encoding: 53 53 20
Width: 546
VWidth: 910
Flags: HW
LayerCount: 2
Fore
SplineSet
92 817 m 0
 97 819 122 819 273 819 c 0
 465 819 454 819 464 814 c 0
 474 809 482 797 485 785 c 0
 488 769 479 749 464 742 c 0
 454 737 464 736 297 736 c 2
 144 736 l 1
 144 673 l 1
 144 609 l 2
 145 609 149 610 154 611 c 0
 165 614 184 616 200 618 c 0
 218 620 285 620 301 619 c 0
 382 613 432 585 460 529 c 0
 479 492 488 446 491 379 c 0
 492 351 492 264 491 237 c 0
 487 159 475 106 450 68 c 0
 422 23 374 0 301 -5 c 0
 285 -6 218 -6 201 -4 c 0
 135 1 102 17 81 48 c 0
 68 66 61 92 61 114 c 0
 61 128 65 138 73 147 c 0
 81 155 90 158 103 158 c 0
 115 158 124 155 132 146 c 0
 140 138 143 129 144 114 c 0
 145 106 147 98 150 93 c 0
 155 88 170 84 192 81 c 0
 221 77 288 76 312 79 c 0
 339 84 359 91 371 103 c 0
 383 114 392 131 397 155 c 0
 405 188 409 230 409 308 c 0
 409 385 405 427 397 460 c 0
 392 484 383 501 371 512 c 0
 359 524 339 530 312 535 c 0
 288 538 221 537 192 533 c 0
 170 530 155 527 150 522 c 0
 147 517 145 509 144 501 c 0
 144 491 142 485 139 479 c 0
 132 464 118 456 102 456 c 0
 83 456 67 469 62 488 c 0
 61 492 61 519 61 637 c 0
 61 764 61 782 63 787 c 0
 67 802 77 813 92 817 c 0
EndSplineSet
EndChar

StartChar: six
Encoding: 54 54 21
Width: 546
VWidth: 910
Flags: HW
LayerCount: 2
Fore
SplineSet
252 824 m 0
 262 825 327 824 344 823 c 0
 385 818 412 810 436 794 c 0
 471 771 489 731 492 674 c 0
 492 663 492 657 491 653 c 0
 485 620 445 608 421 631 c 0
 413 640 409 650 409 664 c 0
 409 692 403 715 394 723 c 0
 386 730 369 735 348 738 c 0
 322 742 273 743 256 740 c 0
 220 735 188 711 173 680 c 0
 169 672 164 654 160 641 c 0
 157 628 151 596 152 596 c 2
 152 596 154 598 158 600 c 0
 188 614 227 620 273 620 c 0
 360 620 418 596 450 546 c 0
 475 508 487 456 491 379 c 0
 492 351 492 264 491 237 c 0
 487 159 475 106 450 68 c 0
 418 18 360 -5 273 -5 c 0
 186 -5 128 18 96 68 c 0
 75 100 63 143 58 199 c 0
 54 229 55 262 55 352 c 0
 56 449 56 482 61 534 c 0
 66 611 81 680 99 717 c 0
 118 756 148 786 188 805 c 0
 208 815 229 821 252 824 c 0
299 536 m 0
 264 539 229 536 206 529 c 0
 180 521 166 508 156 481 c 0
 142 447 137 401 137 308 c 0
 137 214 142 168 156 134 c 0
 166 107 180 94 206 86 c 0
 241 75 305 75 340 86 c 0
 366 94 380 107 390 134 c 0
 404 168 409 214 409 308 c 0
 409 385 405 427 397 460 c 0
 389 494 377 512 358 522 c 0
 342 530 324 534 299 536 c 0
EndSplineSet
EndChar

StartChar: seven
Encoding: 55 55 22
Width: 485
VWidth: 910
Flags: HW
LayerCount: 2
Fore
SplineSet
61 817 m 0
 66 819 91 819 242 819 c 0
 435 819 423 819 433 814 c 0
 448 807 457 788 454 772 c 0
 453 765 213 27 210 22 c 0
 204 9 189 0 174 0 c 0
 159 0 144 9 138 22 c 0
 131 36 131 42 138 66 c 0
 142 75 192 230 250 410 c 2
 357 736 l 1
 209 736 l 1
 63 737 l 1
 57 739 l 2
 37 746 27 766 31 786 c 0
 35 801 46 813 61 817 c 0
EndSplineSet
EndChar

StartChar: eight
Encoding: 56 56 23
Width: 546
VWidth: 910
Flags: HW
LayerCount: 2
Fore
SplineSet
231 824 m 0
 235 825 255 825 279 824 c 0
 312 824 325 824 334 823 c 0
 383 817 417 800 442 773 c 0
 466 747 478 712 483 664 c 0
 485 649 485 556 483 541 c 0
 478 492 465 456 441 431 c 2
 433 423 l 1
 441 415 l 2
 468 388 484 352 490 299 c 0
 492 278 492 180 490 159 c 0
 484 106 468 69 441 43 c 0
 430 31 420 23 405 16 c 0
 381 4 354 -2 317 -5 c 0
 300 -6 246 -6 229 -5 c 0
 172 -1 134 14 106 43 c 0
 94 54 85 66 77 81 c 0
 67 102 60 127 56 159 c 0
 54 180 54 278 56 299 c 0
 62 352 78 388 105 415 c 2
 113 423 l 1
 106 431 l 2
 82 456 68 492 63 541 c 0
 61 556 61 649 63 664 c 0
 67 704 76 732 92 757 c 0
 119 798 164 820 231 824 c 0
313 741 m 0
 298 742 246 742 231 741 c 0
 185 737 163 725 153 694 c 0
 149 683 148 674 146 657 c 0
 144 642 144 563 146 548 c 0
 152 487 171 469 233 464 c 0
 250 463 296 463 313 464 c 0
 362 468 383 480 393 512 c 0
 397 523 398 531 400 548 c 0
 402 563 402 642 400 657 c 0
 394 718 375 736 313 741 c 0
328 379 m 0
 318 380 251 381 238 380 c 0
 199 377 178 372 164 357 c 0
 157 350 151 341 147 329 c 0
 139 305 138 289 138 229 c 0
 138 168 139 153 147 129 c 0
 151 117 157 108 164 101 c 0
 176 89 194 82 223 79 c 0
 238 77 309 77 324 79 c 0
 352 82 370 89 382 101 c 0
 389 108 395 117 399 129 c 0
 407 153 408 168 408 229 c 0
 408 289 407 305 399 329 c 0
 395 341 389 350 382 357 c 0
 370 369 354 375 328 379 c 0
EndSplineSet
EndChar

StartChar: nine
Encoding: 57 57 24
Width: 546
VWidth: 910
Flags: HW
LayerCount: 2
Fore
SplineSet
242 824 m 0
 257 825 288 825 303 824 c 0
 382 818 432 790 460 734 c 0
 479 696 488 651 491 580 c 0
 492 551 492 393 490 358 c 0
 485 252 476 184 457 128 c 0
 441 76 408 39 360 15 c 0
 338 4 316 -2 291 -5 c 0
 277 -7 221 -6 202 -4 c 0
 161 1 134 9 110 25 c 0
 75 48 58 88 55 145 c 0
 55 156 55 163 56 167 c 0
 62 200 102 211 126 188 c 0
 134 179 137 170 137 156 c 0
 137 128 143 104 152 96 c 0
 160 89 177 84 199 81 c 0
 224 77 273 76 290 79 c 0
 326 84 358 108 373 139 c 0
 377 147 382 165 386 179 c 0
 389 191 395 223 394 223 c 2
 394 223 392 221 388 219 c 0
 358 205 319 199 273 199 c 0
 186 199 128 223 96 273 c 0
 71 311 60 363 56 441 c 0
 55 468 55 555 56 583 c 0
 60 660 71 713 96 751 c 0
 124 795 173 819 242 824 c 0
299 741 m 0
 264 744 229 741 206 734 c 0
 180 726 166 712 156 685 c 0
 142 651 137 605 137 512 c 0
 137 418 142 373 156 339 c 0
 166 312 180 298 206 290 c 0
 241 279 305 279 340 290 c 0
 366 298 380 312 390 339 c 0
 404 373 409 418 409 512 c 0
 409 589 405 631 397 664 c 0
 389 698 377 716 358 726 c 0
 342 734 324 739 299 741 c 0
EndSplineSet
EndChar

StartChar: colon
Encoding: 58 58 25
Width: 182
VWidth: 910
Flags: HW
LayerCount: 2
Fore
SplineSet
80 613 m 0
 110 621 138 594 132 564 c 0
 127 541 103 527 81 533 c 0
 59 538 45 560 50 582 c 0
 54 597 65 609 80 613 c 0
80 81 m 0
 106 88 133 68 133 42 c 0
 133 23 120 7 101 2 c 0
 72 -6 44 20 50 50 c 0
 54 65 65 77 80 81 c 0
EndSplineSet
EndChar

StartChar: semicolon
Encoding: 59 59 26
Width: 182
VWidth: 910
Flags: HW
LayerCount: 2
Fore
SplineSet
80 613 m 0
 110 621 138 594 132 564 c 0
 127 541 103 527 81 533 c 0
 59 538 45 560 50 582 c 0
 54 597 65 609 80 613 c 0
81 81 m 0
 104 87 127 73 132 50 c 0
 134 41 133 16 129 -5 c 0
 124 -36 115 -65 101 -91 c 0
 90 -114 78 -122 58 -121 c 0
 51 -120 49 -121 43 -117 c 0
 30 -111 22 -100 20 -86 c 0
 18 -76 20 -70 27 -55 c 0
 42 -24 48 -1 50 36 c 0
 51 51 52 57 57 65 c 0
 62 73 71 79 81 81 c 0
EndSplineSet
EndChar

StartChar: less
Encoding: 60 60 27
Width: 607
VWidth: 910
Flags: HW
LayerCount: 2
Fore
SplineSet
525 613 m 0
 531 615 544 615 550 612 c 0
 562 607 571 597 575 585 c 0
 577 579 577 567 575 561 c 0
 572 554 567 545 561 541 c 0
 558 538 465 485 355 422 c 0
 245 358 155 307 155 307 c 1
 155 307 246 255 356 192 c 0
 466 129 559 76 562 74 c 0
 567 69 572 61 575 54 c 0
 576 51 576 46 576 42 c 0
 576 32 575 25 570 18 c 0
 558 1 535 -4 518 5 c 0
 507 10 51 272 46 275 c 0
 41 280 35 288 32 295 c 0
 30 301 30 313 32 319 c 0
 35 326 41 335 46 340 c 0
 51 343 506 605 517 610 c 0
 519 611 523 612 525 613 c 0
EndSplineSet
EndChar

StartChar: equal
Encoding: 61 61 28
Width: 607
VWidth: 910
Flags: HW
LayerCount: 2
Fore
SplineSet
61 450 m 0
 66 452 98 451 306 451 c 2
 545 451 l 1
 550 449 l 2
 562 444 571 434 575 422 c 0
 577 416 577 404 575 398 c 0
 571 386 562 376 550 371 c 2
 545 370 l 1
 307 369 l 2
 139 369 67 369 63 370 c 0
 42 375 27 395 31 416 c 0
 34 432 46 446 61 450 c 0
61 245 m 0
 66 247 98 247 306 247 c 2
 545 247 l 1
 550 244 l 2
 562 239 571 230 575 218 c 0
 577 212 577 199 575 193 c 0
 571 181 562 172 550 167 c 2
 545 165 l 1
 307 164 l 2
 139 164 67 164 63 165 c 0
 42 170 27 190 31 211 c 0
 34 227 46 241 61 245 c 0
EndSplineSet
EndChar

StartChar: greater
Encoding: 62 62 29
Width: 607
VWidth: 910
Flags: HW
LayerCount: 2
Fore
SplineSet
61 613 m 0
 71 616 81 615 90 610 c 0
 101 605 557 343 562 340 c 0
 567 335 572 326 575 319 c 0
 577 313 577 301 575 295 c 0
 572 288 567 280 562 275 c 0
 557 272 100 10 90 5 c 0
 67 -6 39 5 32 29 c 0
 30 35 30 48 32 54 c 0
 35 61 41 69 46 74 c 0
 49 76 141 129 251 192 c 0
 361 255 452 307 452 307 c 1
 452 307 364 357 111 502 c 0
 41 542 40 543 35 554 c 0
 34 557 32 562 31 566 c 0
 27 587 41 608 61 613 c 0
EndSplineSet
EndChar

StartChar: question
Encoding: 63 63 30
Width: 485
VWidth: 910
Flags: HW
LayerCount: 2
Fore
SplineSet
201 824 m 0
 217 825 265 825 282 824 c 0
 334 820 370 809 398 784 c 0
 425 760 443 724 450 677 c 0
 455 651 455 642 455 582 c 0
 455 522 455 511 450 486 c 0
 443 440 427 409 402 383 c 0
 374 354 337 337 296 333 c 2
 284 332 l 1
 284 241 l 2
 284 141 284 145 279 135 c 0
 274 125 261 116 248 114 c 0
 233 111 214 120 207 135 c 0
 202 145 201 140 201 267 c 0
 201 349 201 384 202 388 c 0
 204 395 209 405 214 410 c 0
 217 412 221 415 226 417 c 0
 235 422 243 422 257 419 c 0
 291 410 323 419 346 443 c 0
 366 466 372 499 372 582 c 0
 372 653 368 682 355 706 c 0
 340 732 311 742 243 742 c 0
 174 742 145 732 130 707 c 0
 118 685 115 661 113 603 c 0
 112 575 112 572 110 567 c 0
 105 555 96 547 85 542 c 0
 78 540 63 539 57 542 c 0
 45 547 37 557 32 568 c 0
 31 573 31 576 31 605 c 0
 31 640 31 654 35 677 c 0
 39 702 46 722 56 742 c 0
 82 793 128 819 201 824 c 0
233 82 m 0
 255 87 277 74 282 51 c 0
 289 26 269 0 242 0 c 0
 216 0 196 26 202 51 c 0
 207 66 218 78 233 82 c 0
EndSplineSet
EndChar

StartChar: at
Encoding: 64 64 31
Width: 728
VWidth: 910
Flags: HW
LayerCount: 2
Fore
SplineSet
323 751 m 0
 336 752 416 751 427 750 c 0
 502 744 552 726 590 692 c 0
 636 651 662 586 670 491 c 0
 674 450 675 357 672 337 c 0
 662 279 638 237 598 210 c 0
 571 193 535 184 505 188 c 0
 500 189 496 188 495 188 c 0
 493 188 493 187 491 181 c 0
 486 158 474 138 460 126 c 0
 437 105 404 95 360 96 c 0
 341 97 328 98 313 102 c 0
 278 112 249 133 234 160 c 0
 219 186 210 225 205 272 c 0
 202 302 201 398 203 443 c 0
 206 514 217 561 238 593 c 0
 247 608 267 625 283 633 c 0
 313 648 352 654 390 649 c 0
 426 645 454 632 471 609 c 0
 487 587 496 557 499 516 c 0
 500 508 500 455 500 389 c 2
 500 276 l 1
 502 274 l 2
 506 271 511 269 521 270 c 0
 529 270 532 270 538 273 c 0
 559 280 576 297 583 322 c 0
 589 341 591 355 591 393 c 0
 591 510 579 574 549 614 c 0
 528 641 497 657 448 664 c 0
 424 668 409 668 364 668 c 0
 319 668 304 668 281 664 c 0
 215 655 181 631 160 580 c 0
 143 537 137 485 137 373 c 0
 137 289 140 249 148 210 c 0
 155 171 170 141 191 118 c 0
 214 94 242 79 277 72 c 0
 287 70 291 70 307 70 c 0
 326 70 332 71 350 76 c 0
 364 79 372 78 383 73 c 0
 398 65 408 45 405 29 c 0
 402 17 394 5 384 0 c 0
 379 -3 361 -8 347 -10 c 0
 312 -16 276 -15 241 -5 c 0
 208 4 176 22 150 44 c 0
 102 84 75 139 63 218 c 0
 57 253 56 278 55 354 c 0
 54 454 57 496 65 542 c 0
 81 631 118 689 180 720 c 0
 218 739 259 748 323 751 c 0
390 566 m 0
 383 567 357 568 349 567 c 0
 334 565 319 559 311 553 c 0
 306 548 303 542 299 532 c 0
 287 498 284 452 285 356 c 0
 286 304 286 291 289 266 c 0
 293 231 301 204 311 195 c 0
 323 183 346 177 372 178 c 0
 399 180 406 184 411 202 c 0
 416 221 416 222 417 362 c 0
 417 512 417 526 411 547 c 0
 406 559 403 563 390 566 c 0
EndSplineSet
EndChar

StartChar: A
Encoding: 65 65 32
Width: 576
VWidth: 910
Flags: HW
LayerCount: 2
Fore
SplineSet
248 817 m 0
 255 820 320 820 327 817 c 0
 339 814 349 806 354 796 c 0
 356 791 374 717 443 421 c 0
 529 56 530 50 530 41 c 0
 530 31 530 31 526 24 c 0
 523 19 522 15 518 11 c 0
 503 -3 480 -4 464 8 c 0
 459 13 453 22 451 27 c 0
 450 30 433 98 414 179 c 2
 380 328 l 1
 288 328 l 1
 197 328 l 1
 162 179 l 2
 143 98 127 30 126 27 c 0
 124 22 117 13 112 8 c 0
 90 -7 62 0 50 24 c 0
 46 31 46 31 46 41 c 0
 46 50 47 56 133 421 c 0
 202 717 220 791 222 796 c 0
 227 806 237 814 248 817 c 0
324 566 m 0
 305 650 289 719 289 719 c 2
 289 720 272 651 252 566 c 0
 232 481 216 412 216 411 c 0
 216 410 231 411 288 411 c 0
 357 411 360 410 360 412 c 0
 359 413 344 482 324 566 c 0
EndSplineSet
EndChar

StartChar: B
Encoding: 66 66 33
Width: 546
VWidth: 910
Flags: HW
LayerCount: 2
Fore
SplineSet
92 818 m 0
 101 820 191 820 234 816 c 0
 305 811 359 798 398 776 c 0
 448 749 479 693 485 619 c 0
 486 604 486 559 484 544 c 0
 481 521 476 496 471 481 c 0
 461 456 446 434 427 419 c 2
 419 411 l 1
 426 406 l 2
 430 403 436 397 441 392 c 0
 467 366 484 329 490 278 c 0
 492 262 492 206 490 191 c 0
 484 139 465 97 436 69 c 0
 424 56 413 48 398 41 c 0
 354 18 300 7 215 2 c 0
 187 0 99 -1 94 1 c 0
 81 4 70 13 65 25 c 2
 62 31 l 1
 62 410 l 1
 62 789 l 1
 65 795 l 2
 70 806 80 814 92 818 c 0
184 735 m 0
 169 736 153 736 150 736 c 2
 144 736 l 1
 144 594 l 1
 144 451 l 1
 194 451 l 2
 259 451 285 452 310 457 c 0
 357 465 382 482 393 512 c 0
 398 527 402 548 403 580 c 0
 404 632 395 669 374 691 c 0
 365 701 353 708 332 715 c 0
 297 728 254 732 184 735 c 0
281 367 m 0
 275 368 242 368 207 369 c 2
 144 369 l 1
 144 226 l 1
 144 83 l 1
 167 83 l 2
 250 86 299 91 338 105 c 0
 359 112 370 118 380 129 c 0
 400 152 410 188 409 239 c 0
 407 298 396 327 371 343 c 0
 351 356 325 363 281 367 c 0
EndSplineSet
EndChar

StartChar: C
Encoding: 67 67 34
Width: 546
VWidth: 910
Flags: HW
LayerCount: 2
Fore
SplineSet
254 824 m 0
 260 825 336 824 347 823 c 0
 363 821 383 819 395 816 c 0
 420 811 445 799 460 787 c 0
 483 769 496 743 503 708 c 0
 506 693 507 672 505 664 c 0
 502 650 495 639 482 634 c 0
 475 630 475 631 465 631 c 0
 454 631 454 630 447 634 c 0
 438 639 433 645 428 653 c 0
 425 659 424 665 422 683 c 0
 420 708 414 720 402 726 c 0
 386 734 363 739 326 741 c 0
 303 742 267 742 256 741 c 0
 217 737 187 721 172 696 c 0
 159 674 149 632 144 582 c 0
 139 535 138 511 138 410 c 0
 138 309 139 284 144 238 c 0
 149 187 159 145 172 123 c 0
 187 98 217 82 256 78 c 0
 275 76 330 77 355 81 c 0
 383 84 404 91 411 99 c 0
 418 106 421 119 422 137 c 0
 424 155 425 161 428 167 c 0
 433 175 438 180 447 185 c 0
 454 189 454 189 465 189 c 0
 475 189 475 189 482 185 c 0
 495 180 502 170 505 156 c 0
 507 148 506 126 503 111 c 0
 496 76 483 50 460 32 c 0
 445 20 420 9 395 4 c 0
 367 -2 341 -5 291 -5 c 0
 256 -5 249 -5 239 -4 c 0
 192 3 153 22 125 50 c 0
 110 65 101 78 91 99 c 0
 74 139 62 196 57 270 c 0
 53 330 53 489 57 550 c 0
 63 646 81 714 110 753 c 0
 118 764 131 777 143 785 c 0
 173 808 208 819 254 824 c 0
EndSplineSet
EndChar

StartChar: D
Encoding: 68 68 35
Width: 530
VWidth: 910
Flags: HW
LayerCount: 2
Fore
SplineSet
92 818 m 0
 96 819 104 819 137 819 c 0
 177 818 193 818 218 815 c 0
 290 808 345 788 387 754 c 0
 397 746 414 729 421 719 c 0
 448 685 468 642 478 592 c 0
 488 544 491 506 491 410 c 0
 491 314 488 275 478 228 c 0
 468 177 448 134 421 100 c 0
 414 90 397 74 387 66 c 0
 340 28 280 8 192 2 c 0
 168 0 99 -1 94 1 c 0
 81 4 70 13 65 25 c 2
 62 31 l 1
 62 410 l 1
 62 789 l 1
 65 795 l 2
 70 806 80 814 92 818 c 0
177 735 m 0
 172 736 161 735 155 736 c 2
 144 736 l 1
 144 410 l 1
 144 83 l 1
 155 83 l 2
 161 84 172 84 177 85 c 0
 239 87 285 98 318 117 c 0
 359 142 384 182 396 240 c 0
 405 278 408 325 408 410 c 0
 408 495 405 541 396 579 c 0
 384 637 359 677 318 702 c 0
 285 721 239 733 177 735 c 0
EndSplineSet
EndChar

StartChar: E
Encoding: 69 69 36
Width: 530
VWidth: 910
Flags: HW
LayerCount: 2
Fore
SplineSet
92 818 m 0
 98 819 447 820 454 818 c 0
 466 814 476 808 481 796 c 0
 485 789 485 788 485 778 c 0
 485 767 485 767 481 760 c 0
 477 751 470 746 463 741 c 0
 453 736 462 736 297 736 c 2
 144 736 l 1
 144 594 l 1
 144 451 l 1
 283 451 l 1
 423 451 l 1
 428 449 l 2
 440 444 449 434 453 422 c 0
 455 416 455 404 453 398 c 0
 449 386 440 376 428 371 c 2
 423 370 l 1
 283 369 l 1
 144 369 l 1
 144 226 l 1
 144 83 l 1
 297 83 l 2
 462 83 453 83 463 78 c 0
 470 73 477 68 481 59 c 0
 485 52 485 52 485 41 c 0
 485 31 485 31 481 24 c 0
 476 12 466 5 454 1 c 0
 447 -1 99 -1 92 1 c 0
 80 5 70 14 65 25 c 2
 62 31 l 1
 62 410 l 1
 62 789 l 1
 65 795 l 2
 70 806 80 814 92 818 c 0
EndSplineSet
EndChar

StartChar: F
Encoding: 70 70 37
Width: 530
VWidth: 910
Flags: HW
LayerCount: 2
Fore
SplineSet
92 818 m 0
 98 819 447 820 454 818 c 0
 466 814 476 808 481 796 c 0
 485 789 485 788 485 778 c 0
 485 767 485 767 481 760 c 0
 477 751 470 746 463 741 c 0
 453 736 462 736 297 736 c 2
 144 736 l 1
 144 594 l 1
 144 451 l 1
 283 451 l 1
 423 451 l 1
 428 449 l 2
 440 444 449 434 453 422 c 0
 455 416 455 404 453 398 c 0
 449 386 440 376 428 371 c 2
 423 370 l 1
 283 369 l 1
 144 369 l 1
 144 203 l 2
 144 84 144 37 143 33 c 0
 139 15 122 0 103 0 c 0
 84 0 66 15 62 33 c 0
 61 37 61 147 61 413 c 2
 62 789 l 1
 65 795 l 2
 70 806 80 814 92 818 c 0
EndSplineSet
EndChar

StartChar: G
Encoding: 71 71 38
Width: 546
VWidth: 910
Flags: HW
LayerCount: 2
Fore
SplineSet
254 824 m 0
 260 825 336 824 347 823 c 0
 363 821 383 819 395 816 c 0
 420 811 445 799 460 787 c 0
 483 769 496 743 503 708 c 0
 506 693 507 672 505 664 c 0
 502 650 495 639 482 634 c 0
 475 630 475 631 465 631 c 0
 454 631 454 630 447 634 c 0
 438 639 433 645 428 653 c 0
 425 659 424 665 422 683 c 0
 420 708 414 720 402 726 c 0
 386 734 363 739 326 741 c 0
 303 742 267 742 256 741 c 0
 217 737 187 721 172 696 c 0
 159 674 149 632 144 582 c 0
 139 535 138 511 138 410 c 0
 138 309 139 284 144 238 c 0
 149 187 159 145 172 123 c 0
 187 98 217 82 256 78 c 0
 275 76 330 77 355 81 c 0
 383 84 404 91 411 99 c 0
 417 105 420 118 422 133 c 0
 423 138 423 187 423 255 c 2
 423 369 l 1
 367 369 l 2
 319 369 310 368 305 370 c 0
 282 375 269 399 275 420 c 0
 279 435 290 446 305 450 c 0
 310 452 322 451 390 451 c 0
 455 451 471 452 475 451 c 0
 490 446 502 433 505 418 c 0
 506 414 506 375 506 269 c 2
 505 124 l 1
 503 111 l 2
 494 65 475 36 440 19 c 0
 420 9 399 3 371 -1 c 0
 346 -5 333 -5 291 -5 c 0
 256 -5 249 -5 239 -4 c 0
 192 3 153 22 125 50 c 0
 110 65 101 78 91 99 c 0
 74 139 62 196 57 270 c 0
 53 330 53 489 57 550 c 0
 63 646 81 714 110 753 c 0
 118 764 131 777 143 785 c 0
 173 808 208 819 254 824 c 0
EndSplineSet
EndChar

StartChar: H
Encoding: 72 72 39
Width: 546
VWidth: 910
Flags: HW
LayerCount: 2
Fore
SplineSet
92 817 m 0
 115 823 138 809 143 786 c 0
 144 782 144 741 144 637 c 2
 144 493 l 1
 274 493 l 1
 403 493 l 1
 403 638 l 2
 403 765 403 782 405 787 c 0
 412 819 451 829 474 807 c 0
 479 802 483 793 485 786 c 0
 486 780 486 39 485 33 c 0
 481 15 464 0 445 0 c 0
 426 0 410 13 405 32 c 0
 403 37 403 58 403 224 c 2
 403 411 l 1
 274 411 l 1
 144 411 l 1
 144 224 l 2
 144 89 144 37 143 33 c 0
 139 15 122 0 103 0 c 0
 84 0 68 13 63 32 c 0
 61 37 61 78 61 410 c 0
 61 742 61 782 63 787 c 0
 67 802 77 813 92 817 c 0
EndSplineSet
EndChar

StartChar: I
Encoding: 73 73 40
Width: 334
VWidth: 910
Flags: HW
LayerCount: 2
Fore
SplineSet
157 817 m 0
 180 823 203 809 208 786 c 0
 209 780 209 39 208 33 c 0
 204 15 186 0 167 0 c 0
 148 0 132 13 127 32 c 0
 125 37 126 78 126 410 c 0
 126 742 125 782 127 787 c 0
 131 802 142 813 157 817 c 0
EndSplineSet
EndChar

StartChar: J
Encoding: 74 74 41
Width: 455
VWidth: 910
Flags: HW
LayerCount: 2
Fore
SplineSet
343 818 m 0
 365 823 389 809 394 786 c 0
 395 780 395 129 394 116 c 0
 388 51 354 16 288 5 c 0
 268 1 258 1 213 1 c 0
 167 1 157 1 138 5 c 0
 72 16 37 51 31 116 c 0
 30 128 30 144 31 149 c 0
 34 162 42 172 54 177 c 0
 61 181 61 182 71 182 c 0
 82 182 82 181 89 177 c 0
 98 172 103 167 108 159 c 0
 112 153 113 147 113 132 c 0
 114 112 118 101 124 96 c 0
 131 90 149 86 172 84 c 0
 189 83 236 83 253 84 c 0
 276 86 294 90 301 96 c 0
 305 99 308 105 310 113 c 0
 311 119 311 149 312 454 c 2
 313 789 l 1
 316 795 l 2
 321 806 331 814 343 818 c 0
EndSplineSet
EndChar

StartChar: K
Encoding: 75 75 42
Width: 530
VWidth: 910
Flags: HW
LayerCount: 2
Fore
SplineSet
92 817 m 0
 113 823 135 812 142 790 c 0
 143 787 144 748 144 652 c 2
 145 516 l 1
 280 663 l 2
 359 749 418 809 421 812 c 0
 442 827 470 820 481 796 c 0
 485 789 485 788 485 777 c 2
 485 767 l 1
 481 760 l 2
 477 752 472 747 366 633 c 0
 305 568 255 513 255 513 c 1
 255 513 307 409 370 282 c 2
 485 52 l 1
 485 41 l 2
 485 31 485 31 481 24 c 0
 468 -2 435 -8 414 13 c 0
 409 18 405 26 302 233 c 2
 195 449 l 1
 169 421 l 1
 144 394 l 1
 144 216 l 2
 144 88 144 37 143 33 c 0
 139 15 122 0 103 0 c 0
 84 0 68 13 63 32 c 0
 61 37 61 78 61 410 c 0
 61 742 61 782 63 787 c 0
 67 802 77 813 92 817 c 0
EndSplineSet
EndChar

StartChar: L
Encoding: 76 76 43
Width: 516
VWidth: 910
Flags: HW
LayerCount: 2
Fore
SplineSet
92 817 m 0
 115 823 138 809 143 786 c 0
 144 782 144 688 144 432 c 2
 144 83 l 1
 299 83 l 1
 454 83 l 1
 459 80 l 2
 471 75 480 66 484 54 c 0
 486 48 486 35 484 29 c 0
 480 17 471 8 459 3 c 2
 454 1 l 1
 277 0 l 2
 144 0 98 0 94 1 c 0
 81 4 70 13 65 25 c 2
 62 31 l 1
 61 406 l 2
 61 672 61 782 62 786 c 0
 65 801 77 813 92 817 c 0
EndSplineSet
EndChar

StartChar: M
Encoding: 77 77 44
Width: 789
VWidth: 910
Flags: HW
LayerCount: 2
Fore
SplineSet
92 817 m 0
 110 822 131 813 139 796 c 0
 140 793 199 646 269 468 c 0
 338 291 395 145 395 145 c 1
 395 145 453 291 522 468 c 0
 592 646 650 793 651 797 c 0
 658 810 673 819 688 819 c 0
 707 819 724 804 728 786 c 0
 729 780 729 39 728 33 c 0
 723 10 700 -4 678 2 c 0
 663 5 654 13 649 27 c 2
 647 33 l 1
 646 295 l 1
 646 557 l 1
 541 289 l 2
 484 142 434 18 432 13 c 0
 425 -2 411 -11 395 -11 c 0
 379 -11 365 -2 358 13 c 0
 356 18 306 142 249 289 c 2
 145 557 l 1
 144 295 l 2
 144 106 143 32 142 29 c 0
 134 7 114 -4 93 2 c 0
 78 6 67 17 63 32 c 0
 61 37 61 78 61 410 c 0
 61 742 61 782 63 787 c 0
 67 802 77 813 92 817 c 0
EndSplineSet
EndChar

StartChar: N
Encoding: 78 78 45
Width: 546
VWidth: 910
Flags: HW
LayerCount: 2
Fore
SplineSet
92 817 m 0
 107 822 121 817 132 806 c 0
 137 801 138 799 152 769 c 0
 160 751 220 622 285 483 c 2
 403 229 l 1
 403 508 l 1
 404 787 l 1
 406 792 l 2
 411 806 420 814 435 817 c 0
 457 823 480 809 485 786 c 0
 486 780 486 39 485 33 c 0
 480 13 462 -1 442 0 c 0
 430 1 418 7 412 15 c 0
 409 19 362 123 277 305 c 2
 145 590 l 1
 144 311 l 2
 144 110 143 32 142 29 c 0
 134 7 114 -4 93 2 c 0
 78 6 67 17 63 32 c 0
 61 37 61 78 61 410 c 0
 61 742 61 782 63 787 c 0
 67 802 77 813 92 817 c 0
EndSplineSet
EndChar

StartChar: O
Encoding: 79 79 46
Width: 698
VWidth: 910
Flags: HW
LayerCount: 2
Fore
SplineSet
306 824 m 0
 325 825 372 825 390 824 c 0
 471 819 527 800 569 764 c 0
 611 727 639 665 650 582 c 0
 656 536 657 513 657 410 c 0
 657 307 656 283 650 238 c 0
 635 132 598 66 534 31 c 0
 488 6 433 -5 350 -5 c 0
 266 -5 210 6 164 31 c 0
 129 51 103 78 83 117 c 0
 59 163 47 219 42 303 c 0
 40 329 40 490 42 516 c 0
 47 611 63 673 94 721 c 0
 134 785 201 818 306 824 c 0
400 740 m 0
 389 741 329 742 319 741 c 0
 259 737 223 729 196 710 c 0
 158 685 134 630 127 542 c 0
 123 507 124 491 124 410 c 0
 124 329 123 312 127 277 c 0
 132 211 147 164 170 133 c 0
 191 106 224 89 274 82 c 0
 297 78 312 78 350 78 c 0
 387 78 401 78 424 82 c 0
 491 92 526 115 547 167 c 0
 562 202 569 243 573 310 c 0
 575 335 575 484 573 509 c 0
 568 599 554 651 528 686 c 0
 504 717 464 735 400 740 c 0
EndSplineSet
EndChar

StartChar: P
Encoding: 80 80 47
Width: 530
VWidth: 910
Flags: HW
LayerCount: 2
Fore
SplineSet
92 818 m 0
 95 818 105 819 129 819 c 0
 259 819 336 808 392 781 c 0
 419 767 439 751 455 726 c 0
 471 701 483 672 488 634 c 0
 490 623 490 618 490 594 c 0
 490 563 488 555 483 530 c 0
 474 489 455 454 429 431 c 0
 390 397 325 377 229 371 c 0
 214 370 167 369 153 369 c 2
 144 369 l 1
 144 203 l 2
 144 84 144 37 143 33 c 0
 139 15 122 0 103 0 c 0
 84 0 66 15 62 33 c 0
 61 37 61 147 61 413 c 2
 62 789 l 1
 65 795 l 2
 70 806 80 814 92 818 c 0
184 735 m 0
 169 736 154 736 150 736 c 2
 144 736 l 1
 144 594 l 1
 144 451 l 1
 150 451 l 2
 163 451 210 453 225 454 c 0
 284 458 325 467 355 481 c 0
 378 492 392 510 400 540 c 0
 409 571 409 617 400 648 c 0
 392 678 378 696 355 707 c 0
 318 724 268 732 184 735 c 0
EndSplineSet
EndChar

StartChar: Q
Encoding: 81 81 48
Width: 698
VWidth: 910
Flags: HW
LayerCount: 2
Fore
SplineSet
306 824 m 0
 325 825 372 825 390 824 c 0
 471 819 527 800 569 764 c 0
 611 727 639 665 650 582 c 0
 656 536 657 513 657 410 c 0
 657 322 658 304 654 269 c 0
 649 201 633 146 609 106 c 2
 606 101 l 1
 619 82 l 2
 634 61 635 56 637 47 c 0
 640 36 634 21 625 12 c 0
 610 -3 584 -4 568 11 c 0
 566 14 561 20 556 27 c 2
 548 39 l 1
 545 37 l 2
 540 33 523 26 514 22 c 0
 472 3 422 -5 350 -5 c 0
 266 -5 210 6 164 31 c 0
 129 51 103 78 83 117 c 0
 59 163 47 219 42 303 c 0
 40 329 40 490 42 516 c 0
 47 611 63 673 94 721 c 0
 134 785 201 818 306 824 c 0
400 740 m 0
 389 741 329 742 319 741 c 0
 259 737 223 729 196 710 c 0
 158 685 134 630 127 542 c 0
 123 507 124 491 124 410 c 0
 124 329 123 312 127 277 c 0
 132 211 147 164 170 133 c 0
 191 106 224 89 274 82 c 0
 297 78 312 78 350 78 c 0
 372 78 391 78 399 79 c 0
 441 83 472 91 494 104 c 2
 502 107 l 2
 502 108 490 125 475 148 c 0
 460 171 447 190 446 193 c 0
 442 204 443 214 448 226 c 0
 456 243 477 253 495 248 c 0
 501 246 509 242 514 237 c 0
 516 234 525 222 535 207 c 0
 555 178 552 179 557 195 c 0
 565 222 570 259 573 310 c 0
 575 335 575 484 573 509 c 0
 568 599 554 651 528 686 c 0
 504 717 464 735 400 740 c 0
EndSplineSet
EndChar

StartChar: R
Encoding: 82 82 49
Width: 546
VWidth: 910
Flags: HW
LayerCount: 2
Fore
SplineSet
92 818 m 0
 96 819 106 819 148 819 c 0
 177 818 209 818 219 817 c 0
 307 812 366 800 411 777 c 0
 426 770 438 762 450 750 c 0
 479 721 497 681 504 628 c 0
 506 616 506 572 504 560 c 0
 499 517 485 483 465 456 c 0
 458 445 442 429 431 422 c 0
 404 402 361 388 309 380 c 0
 299 378 291 377 289 376 c 2
 285 376 l 1
 392 219 l 2
 451 133 501 60 503 57 c 0
 505 52 505 51 505 42 c 0
 505 32 505 31 502 25 c 0
 500 21 497 16 495 13 c 0
 490 8 480 3 473 1 c 0
 467 -1 457 0 451 3 c 0
 445 5 436 11 433 15 c 0
 431 17 376 97 310 193 c 0
 244 289 189 368 189 369 c 0
 188 370 182 370 166 369 c 2
 144 369 l 1
 144 203 l 2
 144 84 144 37 143 33 c 0
 139 15 122 0 103 0 c 0
 84 0 66 15 62 33 c 0
 61 37 61 147 61 413 c 2
 62 789 l 1
 65 795 l 2
 70 806 80 814 92 818 c 0
214 735 m 0
 203 735 183 735 169 736 c 2
 144 736 l 1
 144 594 l 1
 144 451 l 1
 169 451 l 2
 270 454 328 463 369 482 c 0
 398 495 416 523 421 567 c 0
 423 578 423 610 421 621 c 0
 416 657 402 685 381 700 c 0
 353 718 294 731 214 735 c 0
EndSplineSet
EndChar

StartChar: S
Encoding: 83 83 50
Width: 546
VWidth: 910
Flags: HW
LayerCount: 2
Fore
SplineSet
226 824 m 0
 241 825 308 825 326 824 c 0
 403 819 447 798 469 755 c 0
 475 742 479 732 482 717 c 0
 487 697 487 673 485 663 c 0
 482 650 474 639 462 634 c 0
 455 630 455 631 445 631 c 0
 434 631 434 630 427 634 c 0
 412 641 403 656 403 674 c 0
 403 683 402 699 400 706 c 0
 395 722 390 729 369 735 c 0
 351 740 322 742 276 742 c 0
 230 742 206 740 189 734 c 0
 160 725 146 703 141 665 c 0
 136 638 136 589 140 575 c 0
 147 544 171 517 214 489 c 0
 233 477 251 467 291 447 c 0
 334 425 348 416 371 401 c 0
 392 387 410 375 425 360 c 0
 444 340 457 322 468 300 c 0
 477 280 482 262 485 241 c 0
 486 230 486 172 484 158 c 0
 479 104 463 68 436 42 c 0
 425 30 415 23 400 15 c 0
 375 3 351 -2 314 -5 c 0
 291 -7 221 -6 203 -4 c 0
 147 2 112 18 90 46 c 0
 83 55 74 71 70 83 c 0
 63 104 59 142 62 157 c 0
 65 170 73 180 85 185 c 0
 92 189 92 189 103 189 c 0
 113 189 113 189 120 185 c 0
 135 178 144 164 144 146 c 0
 144 137 145 120 147 113 c 0
 152 97 157 91 178 85 c 0
 196 80 224 77 270 77 c 0
 336 77 361 83 378 100 c 0
 384 105 386 109 390 117 c 0
 395 128 398 139 400 154 c 0
 405 181 404 230 400 245 c 0
 392 276 368 305 325 333 c 0
 306 346 288 356 250 374 c 0
 211 394 189 406 169 420 c 0
 121 452 91 483 72 520 c 0
 64 539 59 558 56 578 c 0
 55 589 54 646 56 661 c 0
 59 693 67 720 78 742 c 0
 88 761 105 780 122 792 c 0
 131 798 152 809 164 813 c 0
 180 818 202 822 226 824 c 0
EndSplineSet
EndChar

StartChar: T
Encoding: 84 84 51
Width: 516
VWidth: 910
Flags: HW
LayerCount: 2
Fore
SplineSet
76 818 m 0
 82 819 433 820 440 818 c 0
 452 814 461 808 466 796 c 0
 470 789 471 788 471 778 c 0
 471 767 470 767 466 760 c 0
 462 751 456 746 449 741 c 0
 439 736 440 736 367 736 c 2
 299 736 l 1
 299 387 l 2
 299 131 300 37 299 33 c 0
 295 15 278 0 259 0 c 0
 240 0 223 13 218 32 c 0
 216 37 217 76 217 387 c 2
 217 736 l 1
 149 736 l 2
 76 736 77 736 67 741 c 0
 60 746 54 751 50 760 c 0
 46 767 46 767 46 778 c 0
 46 788 46 789 50 796 c 0
 55 808 64 814 76 818 c 0
EndSplineSet
EndChar

StartChar: U
Encoding: 85 85 52
Width: 546
VWidth: 910
Flags: HW
LayerCount: 2
Fore
SplineSet
92 817 m 0
 113 823 134 812 142 790 c 0
 143 787 144 696 144 465 c 0
 145 126 143 137 148 121 c 0
 153 97 168 86 202 81 c 0
 217 78 239 77 274 77 c 0
 308 77 330 78 345 81 c 0
 379 86 394 97 399 121 c 0
 404 137 402 126 403 465 c 2
 404 787 l 1
 406 792 l 2
 411 806 420 814 435 817 c 0
 457 823 480 810 485 786 c 0
 486 782 486 697 486 458 c 0
 485 106 486 131 481 107 c 0
 468 48 431 14 367 1 c 0
 341 -4 330 -5 274 -5 c 0
 217 -5 206 -4 180 1 c 0
 116 14 79 48 66 107 c 0
 61 131 62 106 61 459 c 0
 61 688 61 782 62 786 c 0
 65 801 77 813 92 817 c 0
EndSplineSet
EndChar

StartChar: V
Encoding: 86 86 53
Width: 576
VWidth: 910
Flags: HW
LayerCount: 2
Fore
SplineSet
76 818 m 0
 85 820 97 819 106 814 c 0
 113 810 120 802 124 796 c 0
 126 791 143 721 207 446 c 0
 252 256 288 100 288 100 c 2
 288 99 324 254 369 443 c 0
 413 632 450 789 451 791 c 0
 453 797 459 806 464 811 c 0
 486 826 514 820 526 796 c 0
 530 789 530 788 530 778 c 0
 530 769 529 764 443 399 c 0
 374 103 356 28 354 23 c 0
 349 13 339 5 327 2 c 0
 320 -1 256 -1 249 2 c 0
 237 5 227 13 222 23 c 0
 220 28 202 103 133 399 c 0
 47 764 46 769 46 778 c 0
 46 788 46 789 50 796 c 0
 55 808 64 814 76 818 c 0
EndSplineSet
EndChar

StartChar: W
Encoding: 87 87 54
Width: 819
VWidth: 910
Flags: HW
LayerCount: 2
Fore
SplineSet
76 818 m 0
 82 820 95 819 101 816 c 0
 113 811 123 802 126 791 c 0
 127 788 155 636 188 451 c 0
 222 266 248 115 248 116 c 2
 248 116 276 259 309 436 c 0
 343 612 369 757 370 760 c 0
 377 784 405 796 428 785 c 0
 438 780 445 771 449 760 c 0
 450 757 477 612 511 436 c 0
 544 259 571 116 571 116 c 2
 571 115 598 266 632 451 c 0
 665 636 693 788 694 791 c 0
 696 797 702 806 707 811 c 0
 729 826 757 819 769 796 c 0
 776 781 783 822 707 401 c 0
 642 46 640 29 637 24 c 0
 632 13 623 5 610 2 c 0
 603 -1 538 -1 532 1 c 0
 520 5 510 13 505 23 c 0
 502 28 499 48 460 259 c 0
 435 386 415 495 413 504 c 0
 411 513 410 521 410 521 c 1
 410 521 408 513 406 504 c 0
 404 495 385 386 360 259 c 0
 321 48 317 28 314 23 c 0
 309 13 299 5 288 1 c 0
 281 -1 216 -1 209 2 c 0
 196 5 187 13 182 24 c 0
 179 29 177 46 112 401 c 0
 36 822 43 781 50 796 c 0
 55 807 64 814 76 818 c 0
EndSplineSet
EndChar

StartChar: X
Encoding: 88 88 55
Width: 546
VWidth: 910
Flags: HW
LayerCount: 2
Fore
SplineSet
92 818 m 0
 101 820 113 819 122 814 c 0
 125 813 128 809 131 807 c 0
 136 801 132 811 214 640 c 0
 246 572 273 516 273 516 c 1
 273 516 304 580 341 658 c 0
 404 790 409 801 414 806 c 0
 433 828 468 821 481 796 c 0
 486 787 487 779 485 771 c 0
 484 766 466 729 401 593 c 0
 355 498 319 420 319 420 c 2
 319 419 359 337 406 237 c 0
 453 138 493 54 493 51 c 0
 494 49 494 44 494 39 c 0
 493 32 494 30 491 25 c 0
 479 -1 444 -8 424 12 c 0
 419 18 424 6 337 188 c 0
 302 262 273 322 273 322 c 1
 273 322 244 262 209 188 c 0
 122 6 127 18 122 12 c 0
 102 -8 68 -1 56 25 c 0
 53 30 53 32 52 39 c 0
 52 44 52 49 53 51 c 0
 53 54 93 138 140 237 c 0
 187 337 227 419 227 420 c 2
 227 420 191 497 145 592 c 0
 100 687 62 765 62 768 c 0
 61 770 61 775 61 780 c 0
 62 787 62 790 65 795 c 0
 70 806 80 814 92 818 c 0
EndSplineSet
EndChar

StartChar: Y
Encoding: 89 89 56
Width: 546
VWidth: 910
Flags: HW
LayerCount: 2
Fore
SplineSet
92 818 m 0
 106 822 121 817 131 807 c 0
 136 802 130 812 208 664 c 0
 243 597 273 542 273 542 c 1
 273 542 304 600 341 671 c 0
 416 813 412 808 424 814 c 0
 434 819 444 820 454 817 c 0
 470 813 482 800 485 783 c 0
 488 770 492 780 399 603 c 2
 315 442 l 1
 315 239 l 2
 315 93 315 37 314 33 c 0
 310 15 293 0 274 0 c 0
 255 0 239 13 234 32 c 0
 232 37 232 60 232 238 c 2
 232 441 l 1
 148 601 l 2
 102 688 64 762 63 765 c 0
 61 769 61 773 61 780 c 0
 62 787 62 790 65 795 c 0
 70 806 80 814 92 818 c 0
EndSplineSet
EndChar

StartChar: Z
Encoding: 90 90 57
Width: 516
VWidth: 910
Flags: HW
LayerCount: 2
Fore
SplineSet
76 818 m 0
 82 819 433 820 440 818 c 0
 457 813 469 798 471 781 c 0
 471 777 471 772 470 769 c 0
 469 766 404 624 310 425 c 0
 224 237 153 85 152 84 c 0
 152 83 180 83 293 83 c 0
 446 83 439 83 449 78 c 0
 456 73 462 68 466 59 c 0
 470 52 471 52 471 41 c 0
 471 31 470 31 466 24 c 0
 462 15 456 10 449 5 c 0
 439 0 449 0 259 0 c 0
 68 0 77 0 67 5 c 0
 55 11 47 24 46 38 c 0
 46 42 45 47 46 50 c 0
 47 53 112 195 206 394 c 0
 292 582 363 734 364 735 c 0
 364 736 336 736 223 736 c 0
 70 736 77 736 67 741 c 0
 60 746 54 751 50 760 c 0
 46 767 46 767 46 778 c 0
 46 788 46 789 50 796 c 0
 55 808 64 814 76 818 c 0
EndSplineSet
EndChar

StartChar: bracketleft
Encoding: 91 91 58
Width: 243
VWidth: 910
Flags: HW
LayerCount: 2
Fore
SplineSet
61 847 m 0
 66 849 76 849 124 849 c 2
 181 849 l 1
 186 847 l 2
 198 842 207 832 211 820 c 0
 213 814 213 802 211 796 c 0
 207 784 198 774 186 769 c 0
 181 767 180 767 147 766 c 2
 113 766 l 1
 113 410 l 1
 113 53 l 1
 147 53 l 2
 180 52 181 52 186 50 c 0
 198 45 207 36 211 24 c 0
 213 18 213 5 211 -1 c 0
 207 -13 198 -22 186 -27 c 2
 181 -29 l 1
 125 -30 l 2
 86 -30 67 -30 63 -29 c 0
 52 -26 40 -18 35 -8 c 0
 30 2 30 -32 30 410 c 0
 30 769 30 812 32 817 c 0
 36 832 46 843 61 847 c 0
EndSplineSet
EndChar

StartChar: backslash
Encoding: 92 92 59
Width: 425
VWidth: 910
Flags: HW
LayerCount: 2
Fore
SplineSet
61 817 m 0
 79 822 99 813 108 797 c 0
 109 794 174 626 252 423 c 0
 347 175 393 51 394 47 c 0
 399 22 378 0 353 0 c 0
 338 0 324 9 317 22 c 0
 316 25 251 193 173 396 c 0
 78 644 32 768 31 772 c 0
 27 792 41 812 61 817 c 0
EndSplineSet
EndChar

StartChar: bracketright
Encoding: 93 93 60
Width: 243
VWidth: 910
Flags: HW
LayerCount: 2
Fore
SplineSet
61 847 m 0
 68 849 175 850 182 848 c 0
 197 843 208 831 212 816 c 0
 213 810 213 9 212 3 c 0
 208 -12 195 -25 180 -29 c 0
 176 -30 160 -30 119 -30 c 2
 63 -29 l 1
 57 -27 l 2
 45 -22 36 -13 32 -1 c 0
 30 5 30 18 32 24 c 0
 36 36 45 45 57 50 c 0
 62 52 63 52 96 53 c 2
 130 53 l 1
 130 410 l 1
 130 766 l 1
 98 766 l 2
 73 766 66 766 62 768 c 0
 46 772 34 785 31 801 c 0
 27 822 41 842 61 847 c 0
EndSplineSet
EndChar

StartChar: asciicircum
Encoding: 94 94 61
Width: 303
VWidth: 910
Flags: HW
LayerCount: 2
Fore
SplineSet
61 829 m 0
 68 831 76 830 115 825 c 2
 152 819 l 1
 189 825 l 2
 209 828 228 830 232 830 c 0
 251 830 268 816 272 796 c 0
 275 779 265 760 250 753 c 0
 246 751 242 749 239 748 c 0
 231 746 156 736 152 736 c 0
 148 736 72 746 64 748 c 0
 57 750 48 755 43 760 c 0
 38 765 32 775 31 783 c 0
 27 803 41 823 61 829 c 0
EndSplineSet
EndChar

StartChar: underscore
Encoding: 95 95 62
Width: 546
VWidth: 910
Flags: HW
LayerCount: 2
Fore
SplineSet
31 -2 m 0
 38 1 508 1 515 -1 c 0
 536 -7 550 -28 545 -50 c 0
 541 -65 530 -77 515 -82 c 0
 510 -83 468 -83 273 -83 c 0
 64 -83 37 -83 32 -81 c 0
 17 -77 6 -66 2 -51 c 0
 -4 -30 9 -7 31 -2 c 0
EndSplineSet
EndChar

StartChar: a
Encoding: 97 97 63
Width: 516
VWidth: 910
Flags: HW
LayerCount: 2
Fore
SplineSet
196 619 m 0
 204 619 232 620 258 620 c 0
 295 619 307 619 317 618 c 0
 359 613 387 600 411 576 c 0
 434 553 448 523 454 478 c 0
 455 468 455 446 456 253 c 0
 456 94 456 38 455 34 c 0
 452 19 440 6 425 1 c 0
 411 -2 396 2 386 12 c 2
 381 16 l 1
 374 13 l 2
 357 5 335 -1 311 -4 c 0
 303 -5 288 -5 259 -5 c 0
 230 -5 214 -5 207 -4 c 0
 161 1 131 14 106 38 c 0
 79 64 66 102 62 157 c 0
 61 175 61 234 62 252 c 0
 66 307 79 345 106 371 c 0
 131 395 161 408 207 413 c 0
 223 415 298 415 314 413 c 0
 335 410 355 406 368 400 c 0
 371 399 372 398 373 398 c 0
 374 398 372 459 371 471 c 0
 366 502 358 519 340 527 c 0
 324 534 311 536 264 537 c 0
 212 537 179 537 158 532 c 0
 144 529 145 529 143 521 c 0
 140 507 133 496 119 490 c 0
 113 487 112 487 103 487 c 0
 93 487 92 487 86 490 c 0
 77 495 70 500 66 508 c 0
 61 518 59 528 63 543 c 0
 68 569 86 591 111 603 c 0
 128 611 159 617 196 619 c 0
308 330 m 0
 298 331 234 332 220 331 c 0
 207 330 199 329 189 326 c 0
 162 319 151 301 146 261 c 0
 144 242 144 167 146 148 c 0
 151 107 163 90 193 83 c 0
 208 78 218 78 259 78 c 0
 300 78 309 78 324 83 c 0
 354 90 366 107 371 148 c 0
 373 167 373 242 371 261 c 0
 365 308 351 325 308 330 c 0
EndSplineSet
EndChar

StartChar: b
Encoding: 98 98 64
Width: 516
VWidth: 910
Flags: HW
LayerCount: 2
Fore
SplineSet
92 817 m 0
 115 823 138 809 143 786 c 0
 144 783 144 760 144 711 c 2
 144 640 l 2
 145 640 148 642 152 644 c 0
 168 651 189 656 214 660 c 0
 231 662 279 662 295 660 c 0
 341 654 375 638 400 613 c 0
 412 601 420 589 429 573 c 0
 449 532 458 482 461 403 c 0
 462 369 462 250 460 228 c 0
 455 162 446 119 429 84 c 0
 420 67 412 56 400 45 c 0
 389 33 377 24 362 16 c 0
 342 6 321 0 295 -4 c 0
 279 -6 224 -6 205 -4 c 0
 180 0 159 6 144 13 c 2
 137 17 l 1
 132 12 l 2
 121 2 107 -2 93 2 c 0
 78 6 67 17 63 32 c 0
 61 37 61 78 61 410 c 0
 61 742 61 782 63 787 c 0
 67 802 77 813 92 817 c 0
291 576 m 0
 279 578 246 579 230 578 c 0
 209 576 192 571 181 565 c 0
 158 552 148 520 145 457 c 0
 144 433 144 187 145 169 c 0
 148 131 154 110 167 97 c 0
 174 90 180 87 191 84 c 0
 206 79 218 78 251 78 c 0
 285 78 294 80 312 86 c 0
 333 92 346 103 354 119 c 0
 367 144 373 180 377 236 c 0
 379 259 379 363 378 396 c 0
 375 467 369 507 354 537 c 0
 349 545 347 548 342 553 c 0
 337 558 334 561 329 564 c 0
 320 569 305 573 291 576 c 0
EndSplineSet
EndChar

StartChar: c
Encoding: 99 99 65
Width: 516
VWidth: 910
Flags: HW
LayerCount: 2
Fore
SplineSet
230 619 m 0
 243 620 291 620 310 619 c 0
 385 614 422 597 443 556 c 0
 452 538 459 504 455 489 c 0
 451 474 441 462 426 457 c 0
 421 456 408 456 403 457 c 0
 392 461 383 469 378 479 c 0
 375 484 374 489 372 504 c 0
 371 517 368 522 361 526 c 0
 346 534 309 538 259 537 c 0
 230 536 217 534 201 529 c 0
 180 523 168 512 160 496 c 0
 148 471 143 443 139 391 c 0
 137 368 137 246 139 224 c 0
 143 171 148 143 160 118 c 0
 168 102 180 92 201 86 c 0
 217 81 230 78 259 77 c 0
 309 76 346 80 361 88 c 0
 368 92 371 97 372 110 c 0
 374 125 375 131 378 136 c 0
 383 146 392 153 403 157 c 0
 408 158 421 158 426 157 c 0
 441 152 451 141 455 126 c 0
 459 111 452 76 443 58 c 0
 422 17 385 0 310 -5 c 0
 289 -6 246 -6 232 -5 c 0
 191 -1 156 10 130 28 c 0
 120 35 105 50 98 61 c 0
 91 71 81 92 76 106 c 0
 66 136 59 171 56 217 c 0
 54 240 54 375 56 399 c 0
 61 458 70 497 86 532 c 0
 95 548 102 560 114 572 c 0
 125 583 135 590 150 597 c 0
 173 609 199 616 230 619 c 0
EndSplineSet
EndChar

StartChar: d
Encoding: 100 100 66
Width: 516
VWidth: 910
Flags: HW
LayerCount: 2
Fore
SplineSet
404 817 m 0
 427 823 450 809 455 786 c 0
 456 780 456 39 455 33 c 0
 451 18 440 6 425 1 c 0
 411 -2 397 2 386 12 c 2
 381 15 l 1
 374 12 l 2
 358 5 339 -1 316 -4 c 0
 297 -6 237 -6 221 -4 c 0
 196 0 176 5 157 15 c 0
 141 23 130 31 119 43 c 0
 94 68 78 104 69 157 c 0
 66 175 65 191 63 215 c 0
 61 239 61 376 63 400 c 0
 69 500 92 555 137 587 c 0
 147 594 166 604 179 608 c 0
 203 616 223 619 258 620 c 0
 306 621 340 616 365 606 c 0
 369 604 372 603 372 603 c 2
 373 603 373 644 373 693 c 0
 373 770 373 782 375 787 c 0
 379 802 389 813 404 817 c 0
310 535 m 0
 298 536 250 537 238 536 c 0
 202 532 178 521 167 500 c 0
 155 476 150 446 146 392 c 0
 144 368 144 246 146 222 c 0
 150 168 155 139 167 115 c 0
 177 96 197 84 228 79 c 0
 241 77 292 77 307 79 c 0
 354 84 368 103 372 159 c 0
 373 176 373 438 372 455 c 0
 370 479 367 491 362 504 c 0
 353 522 338 530 310 535 c 0
EndSplineSet
EndChar

StartChar: e
Encoding: 101 101 67
Width: 500
VWidth: 910
Flags: HW
LayerCount: 2
Fore
SplineSet
230 619 m 0
 232 620 240 620 248 620 c 0
 315 620 372 596 399 553 c 0
 424 515 436 457 440 372 c 0
 441 339 441 291 440 286 c 0
 436 271 425 259 410 254 c 0
 405 253 379 253 271 253 c 2
 137 253 l 1
 137 243 l 2
 138 238 138 227 139 221 c 0
 142 159 153 115 171 98 c 0
 181 90 196 84 217 80 c 0
 227 78 230 78 263 78 c 0
 284 78 302 78 309 79 c 0
 324 80 341 83 347 86 c 0
 352 89 352 90 354 94 c 0
 355 96 357 101 357 106 c 0
 359 123 359 127 363 133 c 0
 367 141 373 146 382 151 c 0
 388 154 390 155 400 155 c 0
 409 155 410 154 416 151 c 0
 425 146 431 141 435 133 c 0
 440 126 441 120 441 110 c 0
 441 87 433 61 421 43 c 0
 403 16 371 1 315 -4 c 0
 298 -6 230 -6 217 -4 c 0
 167 2 130 20 105 48 c 0
 78 80 61 129 56 205 c 0
 54 224 55 335 56 368 c 0
 59 444 67 493 86 532 c 0
 96 552 107 567 122 579 c 0
 150 603 182 614 230 619 c 0
281 534 m 0
 273 536 268 536 255 536 c 0
 246 537 237 537 235 536 c 0
 202 532 183 526 170 512 c 0
 155 496 145 457 141 404 c 0
 139 390 137 350 137 339 c 2
 137 336 l 1
 248 336 l 1
 358 336 l 1
 358 339 l 2
 358 340 358 351 357 365 c 0
 354 431 347 473 334 500 c 0
 325 518 308 528 281 534 c 0
EndSplineSet
EndChar

StartChar: f
Encoding: 102 102 68
Width: 379
VWidth: 910
Flags: HW
LayerCount: 2
Fore
SplineSet
189 824 m 0
 200 825 223 825 235 824 c 0
 269 820 295 810 316 792 c 0
 340 772 355 734 360 685 c 0
 364 658 365 598 363 588 c 0
 359 576 351 566 340 561 c 0
 335 558 333 558 323 558 c 0
 312 558 311 558 306 561 c 0
 295 566 286 576 282 588 c 0
 281 592 281 599 281 613 c 0
 281 645 279 678 275 696 c 0
 273 705 269 719 266 724 c 0
 261 732 253 736 238 740 c 0
 227 742 199 742 188 740 c 0
 167 735 160 729 154 711 c 0
 146 686 144 660 144 563 c 2
 144 493 l 1
 203 493 l 2
 267 493 268 493 277 488 c 0
 287 483 295 471 298 459 c 0
 301 443 292 423 277 416 c 0
 268 411 267 411 203 411 c 2
 144 411 l 1
 144 224 l 2
 144 89 144 37 143 33 c 0
 139 14 121 0 103 0 c 0
 87 0 71 10 65 25 c 2
 62 31 l 1
 61 332 l 2
 61 536 61 640 62 654 c 0
 65 701 71 733 86 760 c 0
 98 784 112 798 137 810 c 0
 152 816 170 822 189 824 c 0
EndSplineSet
EndChar

StartChar: g
Encoding: 103 103 69
Width: 516
VWidth: 910
Flags: HW
LayerCount: 2
Fore
SplineSet
230 619 m 0
 243 620 291 620 310 619 c 0
 339 617 360 614 379 608 c 2
 389 605 l 1
 392 608 l 2
 400 613 414 615 423 613 c 0
 438 609 451 597 455 582 c 0
 456 576 456 -76 455 -90 c 0
 450 -138 429 -172 394 -189 c 0
 374 -199 352 -204 319 -208 c 0
 304 -210 213 -210 198 -208 c 0
 165 -204 143 -199 123 -189 c 0
 92 -174 73 -147 65 -108 c 0
 61 -90 60 -65 62 -56 c 0
 66 -44 75 -34 86 -29 c 0
 91 -26 92 -25 103 -25 c 0
 113 -25 114 -26 119 -29 c 0
 134 -35 144 -51 144 -67 c 0
 144 -78 145 -93 148 -100 c 0
 151 -108 154 -113 161 -117 c 0
 178 -125 204 -127 259 -127 c 0
 314 -127 339 -125 356 -117 c 0
 363 -113 366 -108 369 -100 c 0
 373 -89 373 -77 373 -35 c 2
 373 5 l 1
 364 2 l 2
 341 -3 310 -5 269 -5 c 0
 234 -5 211 -3 189 2 c 0
 168 7 145 17 130 28 c 0
 120 35 105 50 98 61 c 0
 91 71 81 92 76 106 c 0
 66 136 59 171 56 217 c 0
 54 240 54 375 56 399 c 0
 61 458 70 497 86 532 c 0
 95 548 102 560 114 572 c 0
 125 583 135 590 150 597 c 0
 173 609 199 616 230 619 c 0
306 536 m 0
 288 537 248 537 236 536 c 0
 224 535 208 532 199 529 c 0
 179 522 168 512 160 496 c 0
 148 471 143 443 139 391 c 0
 137 368 137 246 139 224 c 0
 143 171 148 143 160 118 c 0
 168 102 180 92 201 86 c 0
 217 81 230 78 259 77 c 0
 309 76 346 80 361 88 c 0
 366 90 367 91 369 96 c 0
 371 99 371 103 372 107 c 0
 373 115 373 499 372 508 c 0
 371 511 371 516 369 519 c 0
 367 524 366 524 361 526 c 0
 351 531 333 534 306 536 c 0
EndSplineSet
EndChar

StartChar: h
Encoding: 104 104 70
Width: 516
VWidth: 910
Flags: HW
LayerCount: 2
Fore
SplineSet
92 817 m 0
 115 823 138 809 143 786 c 0
 144 782 144 756 144 696 c 0
 144 649 144 611 145 611 c 2
 154 613 l 2
 178 618 213 620 257 620 c 0
 289 619 299 618 318 613 c 0
 333 609 345 606 360 599 c 0
 392 584 413 562 428 528 c 0
 443 496 449 459 454 403 c 0
 456 384 457 41 455 34 c 0
 450 10 427 -4 405 2 c 0
 390 5 381 13 376 27 c 2
 374 33 l 1
 373 208 l 2
 372 327 372 387 371 396 c 0
 367 449 362 476 350 500 c 0
 340 519 321 530 289 535 c 0
 281 536 275 536 244 536 c 0
 198 536 178 534 160 529 c 0
 150 525 150 523 146 515 c 0
 145 510 144 495 144 271 c 0
 144 100 143 32 142 29 c 0
 135 7 114 -4 93 2 c 0
 78 6 67 17 63 32 c 0
 61 37 61 78 61 410 c 0
 61 742 61 782 63 787 c 0
 67 802 77 813 92 817 c 0
EndSplineSet
EndChar

StartChar: i
Encoding: 105 105 71
Width: 273
VWidth: 910
Flags: HW
LayerCount: 2
Fore
SplineSet
126 756 m 0
 156 764 183 738 177 708 c 0
 172 685 149 671 127 677 c 0
 105 682 91 703 96 725 c 0
 100 740 111 752 126 756 c 0
126 613 m 0
 149 619 172 605 177 582 c 0
 178 576 178 39 177 33 c 0
 173 14 155 0 137 0 c 0
 121 0 105 10 99 25 c 2
 96 31 l 1
 96 308 l 1
 96 584 l 1
 99 591 l 2
 104 602 115 610 126 613 c 0
EndSplineSet
EndChar

StartChar: j
Encoding: 106 106 72
Width: 364
VWidth: 910
Flags: HW
LayerCount: 2
Fore
SplineSet
251 756 m 0
 281 764 309 738 303 708 c 0
 298 685 274 671 252 677 c 0
 230 682 216 703 221 725 c 0
 225 740 236 752 251 756 c 0
251 613 m 0
 275 619 298 605 303 581 c 0
 305 574 304 -42 302 -57 c 0
 298 -96 291 -122 280 -146 c 0
 268 -169 253 -184 228 -196 c 0
 207 -205 182 -210 152 -210 c 0
 108 -210 73 -199 48 -177 c 0
 23 -155 7 -114 2 -56 c 0
 0 -39 0 18 1 24 c 0
 5 43 22 57 42 57 c 0
 61 57 78 43 82 24 c 0
 82 21 83 5 83 -10 c 0
 84 -52 87 -77 92 -94 c 0
 98 -114 104 -119 120 -124 c 0
 138 -129 166 -129 184 -124 c 0
 200 -119 206 -114 212 -94 c 0
 215 -85 217 -68 219 -50 c 0
 220 -42 221 41 221 272 c 2
 222 584 l 1
 225 591 l 2
 230 602 240 610 251 613 c 0
EndSplineSet
EndChar

StartChar: k
Encoding: 107 107 73
Width: 485
VWidth: 910
Flags: HW
LayerCount: 2
Fore
SplineSet
92 817 m 0
 113 823 134 812 142 790 c 0
 143 787 144 732 144 593 c 2
 145 398 l 1
 260 517 l 2
 325 583 379 639 383 643 c 0
 389 649 400 654 408 655 c 0
 425 658 444 648 451 633 c 0
 457 620 456 608 451 595 c 0
 447 590 440 582 348 487 c 2
 248 385 l 1
 350 222 l 2
 423 105 451 58 453 54 c 0
 455 48 455 35 453 29 c 0
 450 22 445 13 439 8 c 0
 423 -4 400 -3 385 11 c 0
 382 14 357 54 285 168 c 0
 232 253 188 323 188 323 c 1
 188 323 179 313 166 301 c 2
 144 279 l 1
 144 157 l 2
 144 71 144 37 143 33 c 0
 139 15 122 0 103 0 c 0
 84 0 68 13 63 32 c 0
 61 37 61 78 61 410 c 0
 61 742 61 782 63 787 c 0
 67 802 77 813 92 817 c 0
EndSplineSet
EndChar

StartChar: l
Encoding: 108 108 74
Width: 273
VWidth: 910
Flags: HW
LayerCount: 2
Fore
SplineSet
127 817 m 0
 150 823 172 809 177 786 c 0
 178 780 178 39 177 33 c 0
 173 15 156 0 137 0 c 0
 118 0 102 13 97 32 c 0
 95 37 96 78 96 410 c 0
 96 742 95 782 97 787 c 0
 101 802 112 813 127 817 c 0
EndSplineSet
EndChar

StartChar: m
Encoding: 109 109 75
Width: 728
VWidth: 910
Flags: HW
LayerCount: 2
Fore
SplineSet
205 619 m 0
 219 620 247 620 258 618 c 0
 301 613 339 594 360 567 c 2
 364 561 l 1
 370 568 l 2
 401 605 460 625 520 618 c 0
 566 613 603 593 626 562 c 0
 637 547 648 522 654 496 c 0
 662 465 665 433 667 385 c 0
 668 351 668 39 667 33 c 0
 663 15 646 0 627 0 c 0
 608 0 592 13 587 32 c 0
 585 37 585 56 585 196 c 0
 585 376 585 400 580 441 c 0
 576 468 570 490 563 505 c 0
 559 514 551 522 542 527 c 0
 516 541 476 541 450 527 c 0
 441 522 432 514 428 505 c 0
 421 490 415 468 411 441 c 0
 406 401 406 376 406 196 c 0
 406 82 406 37 405 33 c 0
 401 15 384 0 365 0 c 0
 346 0 330 13 325 32 c 0
 323 37 323 56 323 196 c 0
 323 376 323 400 318 441 c 0
 314 468 308 490 301 505 c 0
 293 522 275 533 248 536 c 0
 242 537 232 537 220 537 c 0
 174 535 159 527 151 499 c 0
 147 489 146 476 145 458 c 0
 144 448 144 370 144 240 c 0
 144 93 144 37 143 33 c 0
 139 15 122 0 103 0 c 0
 84 0 68 13 63 32 c 0
 61 37 61 68 61 308 c 0
 61 547 61 578 63 583 c 0
 70 613 104 624 129 604 c 0
 133 601 133 601 136 603 c 0
 151 610 180 618 205 619 c 0
EndSplineSet
EndChar

StartChar: n
Encoding: 110 110 76
Width: 516
VWidth: 910
Flags: HW
LayerCount: 2
Fore
SplineSet
218 619 m 0
 221 620 238 620 255 619 c 0
 289 619 298 618 318 613 c 0
 333 609 345 606 360 599 c 0
 392 584 413 562 428 528 c 0
 443 496 449 459 454 403 c 0
 456 384 457 41 455 34 c 0
 450 10 427 -4 405 2 c 0
 390 5 381 13 376 27 c 2
 374 33 l 1
 373 208 l 2
 372 327 372 387 371 396 c 0
 367 449 362 476 350 500 c 0
 340 519 321 530 289 535 c 0
 281 536 275 536 250 536 c 0
 230 536 216 536 210 535 c 0
 167 530 152 515 146 471 c 0
 145 460 145 446 144 247 c 0
 144 95 143 32 142 29 c 0
 133 4 106 -8 83 5 c 0
 77 8 69 16 66 22 c 0
 61 32 61 11 61 308 c 0
 61 547 61 578 63 583 c 0
 70 614 107 624 131 603 c 2
 136 599 l 1
 143 603 l 2
 163 612 187 617 218 619 c 0
EndSplineSet
EndChar

StartChar: o
Encoding: 111 111 77
Width: 576
VWidth: 910
Flags: HW
LayerCount: 2
Fore
SplineSet
254 619 m 0
 268 620 331 619 344 618 c 0
 399 612 436 597 466 572 c 0
 491 549 511 515 522 471 c 0
 533 431 536 393 536 308 c 0
 536 222 533 184 522 145 c 0
 502 67 461 23 389 5 c 0
 360 -2 338 -5 289 -5 c 0
 239 -5 217 -2 188 5 c 0
 132 20 94 48 70 97 c 0
 53 133 44 177 41 239 c 0
 40 264 40 350 41 376 c 0
 44 437 53 481 70 517 c 0
 87 553 111 577 145 594 c 0
 174 609 205 616 254 619 c 0
336 535 m 0
 323 536 267 537 252 536 c 0
 206 533 177 523 160 505 c 0
 145 490 134 463 129 429 c 0
 124 401 123 366 123 308 c 0
 123 249 124 214 129 186 c 0
 134 150 148 121 164 106 c 0
 180 91 203 83 242 79 c 0
 257 77 319 77 334 79 c 0
 390 84 416 100 432 135 c 0
 447 170 453 212 453 308 c 0
 453 366 452 401 447 429 c 0
 442 465 428 493 412 508 c 0
 396 523 373 531 336 535 c 0
EndSplineSet
EndChar

StartChar: p
Encoding: 112 112 78
Width: 500
VWidth: 910
Flags: HW
LayerCount: 2
Fore
SplineSet
209 619 m 0
 226 620 276 620 290 618 c 0
 325 613 357 601 380 586 c 0
 390 579 404 564 411 554 c 0
 418 543 429 522 434 508 c 0
 441 485 447 459 451 431 c 0
 455 398 455 385 455 308 c 0
 455 230 455 217 451 184 c 0
 447 156 441 129 434 106 c 0
 429 92 418 71 411 60 c 0
 404 50 390 35 380 28 c 0
 357 13 325 1 290 -4 c 0
 275 -6 234 -7 213 -5 c 0
 188 -3 164 2 149 8 c 0
 146 9 145 10 144 10 c 2
 144 -78 l 2
 144 -141 144 -168 143 -172 c 0
 139 -190 122 -205 103 -205 c 0
 84 -205 68 -192 63 -173 c 0
 61 -168 61 -127 61 205 c 0
 61 537 61 578 63 583 c 0
 70 614 106 624 130 603 c 2
 135 600 l 1
 138 602 l 2
 155 611 182 617 209 619 c 0
272 536 m 0
 260 537 230 537 216 536 c 0
 163 532 149 516 145 456 c 0
 144 438 144 176 145 159 c 0
 148 117 156 97 174 88 c 0
 188 81 202 78 235 77 c 0
 270 76 291 80 310 86 c 0
 330 93 342 102 350 118 c 0
 367 153 372 202 372 308 c 0
 372 414 367 461 350 496 c 0
 342 512 330 522 310 529 c 0
 300 533 287 535 272 536 c 0
EndSplineSet
EndChar

StartChar: q
Encoding: 113 113 79
Width: 500
VWidth: 910
Flags: HW
LayerCount: 2
Fore
SplineSet
223 619 m 0
 237 620 292 619 305 618 c 0
 328 614 343 610 358 604 c 2
 367 600 l 1
 371 603 l 2
 381 612 397 616 410 613 c 0
 425 608 436 597 440 582 c 0
 441 576 441 -166 440 -172 c 0
 436 -190 419 -205 400 -205 c 0
 381 -205 365 -192 360 -173 c 0
 358 -168 358 -155 358 -79 c 0
 358 6 358 10 356 9 c 0
 351 7 333 2 325 0 c 0
 304 -5 295 -5 258 -5 c 0
 229 -5 220 -5 211 -4 c 0
 163 3 130 19 105 44 c 0
 93 55 85 66 76 82 c 0
 60 117 51 157 47 217 c 0
 45 239 45 376 47 399 c 0
 51 458 60 497 76 532 c 0
 85 548 93 560 105 572 c 0
 116 583 125 590 140 597 c 0
 164 609 190 616 223 619 c 0
299 535 m 0
 288 536 241 537 228 536 c 0
 214 535 199 532 190 529 c 0
 170 522 159 512 151 496 c 0
 134 461 128 414 128 308 c 0
 128 202 134 153 151 118 c 0
 162 97 179 86 212 80 c 0
 225 78 227 78 257 78 c 0
 298 78 313 80 328 88 c 0
 346 97 354 117 357 159 c 0
 358 176 358 438 357 456 c 0
 353 512 340 529 299 535 c 0
EndSplineSet
EndChar

StartChar: r
Encoding: 114 114 80
Width: 455
VWidth: 910
Flags: HW
LayerCount: 2
Fore
SplineSet
206 619 m 0
 219 620 282 620 297 619 c 0
 351 616 379 607 399 587 c 0
 415 572 425 546 425 524 c 0
 425 502 411 486 390 482 c 0
 373 479 355 488 347 503 c 0
 344 508 343 512 341 525 c 0
 341 529 339 529 326 532 c 0
 310 536 296 536 250 536 c 0
 203 537 196 537 181 532 c 0
 159 526 151 514 146 482 c 0
 145 474 145 450 144 252 c 0
 144 96 143 32 142 29 c 0
 136 12 120 0 103 0 c 0
 87 0 71 10 65 25 c 2
 62 31 l 1
 61 304 l 2
 61 496 61 578 62 582 c 0
 65 593 73 604 83 609 c 0
 98 617 115 615 129 604 c 2
 133 602 l 1
 137 603 l 2
 152 611 181 618 206 619 c 0
EndSplineSet
EndChar

StartChar: s
Encoding: 115 115 81
Width: 516
VWidth: 910
Flags: HW
LayerCount: 2
Fore
SplineSet
215 619 m 0
 230 620 295 620 310 619 c 0
 385 614 422 597 443 556 c 0
 452 538 459 504 455 489 c 0
 451 474 441 462 426 457 c 0
 421 456 408 456 403 457 c 0
 392 461 383 469 378 479 c 0
 375 484 374 489 372 504 c 0
 371 517 368 522 361 526 c 0
 346 533 316 537 260 537 c 0
 195 537 170 533 155 519 c 0
 143 509 138 489 138 452 c 0
 138 432 138 431 140 425 c 0
 147 407 166 389 195 374 c 0
 215 365 237 357 279 344 c 0
 304 337 325 329 348 318 c 0
 377 303 395 290 413 272 c 0
 425 260 434 249 441 235 c 0
 447 222 449 215 453 200 c 0
 455 190 455 189 455 163 c 0
 455 133 456 124 451 106 c 0
 442 62 419 32 383 14 c 0
 364 5 345 0 319 -4 c 0
 303 -6 233 -7 208 -5 c 0
 132 0 95 17 74 58 c 0
 65 76 58 111 62 126 c 0
 66 141 76 152 91 157 c 0
 96 158 109 158 114 157 c 0
 125 153 134 146 139 136 c 0
 142 131 143 125 145 110 c 0
 146 97 149 92 156 88 c 0
 171 81 201 77 256 77 c 0
 302 77 325 80 340 86 c 0
 362 95 369 107 372 144 c 0
 374 163 373 180 370 188 c 0
 367 197 362 206 353 215 c 0
 342 226 329 234 310 244 c 0
 293 252 275 260 252 266 c 0
 207 279 184 287 159 300 c 0
 133 313 113 326 97 343 c 0
 76 364 63 387 57 414 c 0
 55 423 56 427 55 443 c 0
 53 525 76 574 127 599 c 0
 151 611 180 618 215 619 c 0
EndSplineSet
EndChar

StartChar: t
Encoding: 116 116 82
Width: 364
VWidth: 910
Flags: HW
LayerCount: 2
Fore
SplineSet
172 817 m 0
 195 823 218 809 223 786 c 0
 224 782 224 756 224 698 c 2
 224 614 l 1
 263 614 l 2
 301 614 302 614 307 612 c 0
 319 607 328 597 332 585 c 0
 334 579 334 567 332 561 c 0
 328 549 319 539 307 534 c 0
 302 532 301 532 263 532 c 2
 224 532 l 1
 224 284 l 2
 224 105 224 37 223 33 c 0
 219 14 201 0 183 0 c 0
 167 0 151 10 145 25 c 2
 142 31 l 1
 141 281 l 1
 141 532 l 1
 102 532 l 2
 63 532 62 532 57 534 c 0
 45 539 36 549 32 561 c 0
 30 567 30 579 32 585 c 0
 36 597 45 607 57 612 c 0
 62 614 63 614 102 614 c 2
 141 614 l 1
 141 698 l 2
 141 771 141 782 143 787 c 0
 147 802 157 813 172 817 c 0
EndSplineSet
EndChar

StartChar: u
Encoding: 117 117 83
Width: 516
VWidth: 910
Flags: HW
LayerCount: 2
Fore
SplineSet
92 613 m 0
 113 619 135 607 142 585 c 0
 143 582 144 529 144 407 c 0
 144 288 145 227 146 218 c 0
 150 165 155 139 167 116 c 0
 177 96 196 84 228 79 c 0
 236 78 243 78 268 78 c 0
 287 78 301 78 307 79 c 0
 350 84 365 99 371 143 c 0
 372 154 372 169 373 369 c 2
 374 583 l 1
 376 587 l 2
 381 601 390 610 405 613 c 0
 427 619 450 605 455 582 c 0
 456 576 456 39 455 33 c 0
 451 18 440 6 425 1 c 0
 411 -2 397 2 386 12 c 2
 381 15 l 1
 374 12 l 2
 358 5 339 -1 316 -4 c 0
 297 -6 237 -6 221 -4 c 0
 196 0 176 5 157 15 c 0
 124 30 104 52 89 86 c 0
 74 118 68 155 63 211 c 0
 61 229 60 575 62 582 c 0
 65 597 77 609 92 613 c 0
EndSplineSet
EndChar

StartChar: v
Encoding: 118 118 84
Width: 485
VWidth: 910
Flags: HW
LayerCount: 2
Fore
SplineSet
76 613 m 0
 85 615 97 614 106 609 c 0
 113 605 120 598 124 592 c 0
 126 587 139 532 185 342 c 0
 217 207 243 98 243 99 c 2
 243 99 269 209 301 343 c 0
 346 532 359 587 361 592 c 0
 369 608 391 618 409 613 c 0
 421 609 430 603 435 591 c 0
 439 584 440 582 440 574 c 0
 440 565 438 560 375 297 c 0
 325 88 311 28 309 23 c 0
 304 13 293 5 281 2 c 0
 274 -1 211 -1 204 2 c 0
 192 5 182 13 177 23 c 0
 175 28 160 88 110 297 c 0
 47 560 46 565 46 574 c 0
 46 582 46 584 50 591 c 0
 55 603 64 609 76 613 c 0
EndSplineSet
EndChar

StartChar: w
Encoding: 119 119 85
Width: 758
VWidth: 910
Flags: HW
LayerCount: 2
Fore
SplineSet
76 613 m 0
 82 615 95 615 101 612 c 0
 113 607 123 597 126 586 c 0
 127 584 151 474 180 343 c 0
 208 211 233 104 233 105 c 2
 233 105 258 213 287 346 c 0
 345 610 341 593 350 603 c 0
 367 618 393 618 409 603 c 0
 418 593 413 610 471 346 c 0
 500 214 525 105 525 105 c 2
 525 104 550 211 578 343 c 0
 607 474 632 584 633 586 c 0
 636 597 646 607 657 612 c 0
 682 622 711 603 713 576 c 0
 713 569 712 563 654 298 c 0
 607 86 594 27 591 23 c 0
 586 13 575 5 564 1 c 0
 557 -1 493 -1 486 1 c 0
 475 5 465 13 460 23 c 0
 458 27 447 71 419 201 c 0
 398 297 381 376 380 378 c 0
 380 380 371 344 340 204 c 0
 311 72 301 27 299 23 c 0
 294 13 283 5 272 1 c 0
 265 -1 201 -1 195 1 c 0
 188 3 180 7 175 12 c 0
 166 21 171 -1 105 298 c 0
 47 563 46 569 46 576 c 0
 47 582 46 585 50 592 c 0
 55 603 64 609 76 613 c 0
EndSplineSet
EndChar

StartChar: x
Encoding: 120 120 86
Width: 485
VWidth: 910
Flags: HW
LayerCount: 2
Fore
SplineSet
86 613 m 0
 95 615 107 614 116 609 c 0
 127 604 126 604 187 498 c 0
 230 422 243 399 243 400 c 0
 268 445 353 593 356 597 c 0
 358 600 361 603 364 606 c 0
 386 621 414 615 426 591 c 0
 430 584 431 583 431 573 c 0
 431 563 430 562 427 556 c 0
 425 552 394 498 358 434 c 0
 323 370 292 319 291 317 c 0
 290 315 297 302 361 190 c 0
 400 121 434 62 436 58 c 0
 439 52 440 51 440 41 c 0
 440 31 439 31 435 24 c 0
 428 9 412 -1 396 0 c 0
 384 1 372 7 366 16 c 0
 364 18 336 69 302 126 c 0
 252 216 242 231 241 229 c 0
 241 228 214 181 182 125 c 0
 149 68 121 18 119 16 c 0
 117 13 114 10 111 8 c 0
 90 -7 62 0 50 24 c 0
 46 31 46 31 46 41 c 0
 46 51 46 52 49 58 c 0
 51 62 85 121 124 190 c 0
 188 302 195 315 194 317 c 0
 193 319 162 370 127 434 c 0
 91 498 60 552 58 556 c 0
 55 562 56 563 56 573 c 0
 56 583 55 584 59 591 c 0
 64 603 74 609 86 613 c 0
EndSplineSet
EndChar

StartChar: y
Encoding: 121 121 87
Width: 485
VWidth: 910
Flags: HW
LayerCount: 2
Fore
SplineSet
76 613 m 0
 85 615 97 614 106 609 c 0
 112 606 120 599 123 593 c 0
 125 591 148 509 182 394 c 0
 214 287 240 197 241 194 c 2
 243 188 l 1
 300 387 l 2
 333 500 359 588 361 592 c 0
 369 608 391 618 409 613 c 0
 421 609 430 603 435 591 c 0
 439 584 439 583 439 573 c 2
 439 564 l 1
 330 194 l 2
 271 -10 221 -178 219 -181 c 0
 213 -195 198 -205 183 -205 c 0
 159 -205 139 -184 141 -161 c 0
 142 -157 153 -118 170 -56 c 2
 199 42 l 1
 123 303 l 1
 46 564 l 1
 46 573 l 2
 46 583 46 584 50 591 c 0
 55 603 64 609 76 613 c 0
EndSplineSet
EndChar

StartChar: z
Encoding: 122 122 88
Width: 485
VWidth: 910
Flags: HW
LayerCount: 2
Fore
SplineSet
76 613 m 0
 82 614 402 615 409 613 c 0
 421 609 430 603 435 591 c 0
 439 584 440 583 440 573 c 0
 440 563 439 562 435 555 c 0
 433 550 371 443 296 316 c 2
 159 84 l 1
 283 83 l 2
 370 83 408 82 411 81 c 0
 423 76 430 70 435 59 c 0
 439 52 440 52 440 42 c 0
 440 31 439 31 435 24 c 0
 430 12 421 5 409 1 c 0
 402 -1 83 -1 77 1 c 0
 64 5 55 12 50 24 c 0
 46 31 46 31 46 41 c 0
 46 51 46 52 50 59 c 0
 52 64 114 171 189 299 c 2
 326 532 l 1
 202 532 l 2
 115 532 78 532 75 533 c 0
 63 538 55 544 50 555 c 0
 46 562 46 562 46 573 c 0
 46 583 46 584 50 591 c 0
 55 603 64 609 76 613 c 0
EndSplineSet
EndChar

StartChar: braceleft
Encoding: 123 123 89
Width: 273
VWidth: 910
Flags: HW
LayerCount: 2
Fore
SplineSet
183 847 m 0
 188 848 194 849 201 849 c 0
 211 849 212 849 219 845 c 0
 228 840 234 835 238 826 c 0
 244 814 244 801 238 789 c 0
 232 776 220 769 204 766 c 0
 191 764 189 763 185 749 c 0
 178 725 175 683 175 605 c 0
 175 537 172 503 167 473 c 0
 163 448 158 432 150 418 c 2
 146 410 l 1
 150 401 l 2
 158 387 163 371 167 346 c 0
 172 316 175 282 175 214 c 0
 175 136 178 94 185 70 c 0
 189 56 191 55 204 53 c 0
 220 50 232 43 238 30 c 0
 249 9 241 -15 219 -25 c 2
 212 -29 l 1
 199 -29 l 2
 188 -29 184 -29 177 -27 c 0
 143 -18 117 7 107 40 c 0
 95 75 92 116 92 207 c 0
 92 285 89 329 82 351 c 0
 78 363 75 367 63 369 c 0
 47 371 35 378 29 391 c 0
 23 404 24 416 29 429 c 0
 35 441 48 449 63 451 c 0
 75 453 78 456 82 468 c 0
 89 490 92 535 92 613 c 0
 92 681 94 715 99 745 c 0
 104 777 112 796 124 812 c 0
 139 830 158 842 183 847 c 0
EndSplineSet
EndChar

StartChar: bar
Encoding: 124 124 90
Width: 303
VWidth: 910
Flags: HW
LayerCount: 2
Fore
SplineSet
141 817 m 0
 164 823 187 809 192 786 c 0
 193 780 193 39 192 33 c 0
 188 15 171 0 152 0 c 0
 133 0 117 13 112 32 c 0
 110 37 110 78 110 410 c 0
 110 742 110 782 112 787 c 0
 116 802 126 813 141 817 c 0
EndSplineSet
EndChar

StartChar: braceright
Encoding: 125 125 91
Width: 273
VWidth: 910
Flags: HW
LayerCount: 2
Fore
SplineSet
49 848 m 0
 52 848 58 849 64 849 c 0
 96 849 128 832 147 804 c 0
 161 784 169 748 173 698 c 0
 174 690 175 652 175 613 c 0
 176 534 176 515 181 490 c 0
 184 471 188 461 193 456 c 0
 197 453 199 453 210 451 c 0
 225 449 238 442 244 429 c 0
 249 416 250 404 244 391 c 0
 238 378 226 371 211 369 c 0
 199 367 197 366 193 363 c 0
 188 358 184 348 181 330 c 0
 176 305 176 286 175 207 c 0
 175 168 174 129 173 122 c 0
 169 71 161 35 147 15 c 0
 127 -14 95 -31 61 -30 c 0
 51 -30 50 -29 43 -25 c 0
 34 -20 28 -15 24 -6 c 0
 18 6 19 18 25 30 c 0
 32 44 47 53 63 53 c 0
 68 53 72 55 76 60 c 0
 82 67 87 92 90 129 c 0
 91 136 92 175 92 214 c 0
 93 297 94 312 99 342 c 0
 104 371 110 390 120 405 c 2
 123 410 l 1
 120 414 l 2
 110 429 104 448 99 477 c 0
 94 507 93 522 92 605 c 0
 92 644 91 683 90 691 c 0
 87 727 82 752 76 759 c 0
 72 764 68 766 63 766 c 0
 42 766 24 781 20 802 c 0
 16 822 29 842 49 848 c 0
EndSplineSet
EndChar

StartChar: asciitilde
Encoding: 126 126 92
Width: 607
VWidth: 910
Flags: HW
LayerCount: 2
Fore
SplineSet
150 417 m 0
 152 418 172 418 194 417 c 0
 234 417 243 416 261 412 c 0
 288 407 310 395 323 379 c 0
 337 362 343 341 345 311 c 0
 345 302 346 293 347 290 c 0
 348 287 349 287 354 285 c 0
 366 280 377 280 420 280 c 0
 463 280 473 280 485 285 c 0
 492 288 492 289 494 305 c 0
 496 325 502 336 516 343 c 0
 540 357 571 343 576 316 c 0
 580 301 575 271 566 253 c 0
 551 220 522 204 472 198 c 0
 457 196 382 196 368 198 c 0
 326 203 300 215 284 236 c 0
 270 253 264 273 262 303 c 0
 262 312 261 321 260 324 c 0
 259 327 258 328 253 330 c 0
 241 335 231 334 188 334 c 0
 154 334 145 334 137 333 c 0
 125 331 117 328 116 326 c 0
 115 325 114 320 114 315 c 0
 112 293 109 287 101 278 c 0
 85 263 58 263 43 279 c 0
 34 287 30 296 30 310 c 0
 30 344 43 375 65 391 c 0
 83 406 109 414 150 417 c 0
EndSplineSet
EndChar

StartChar: Adieresis
Encoding: 196 196 93
Width: 637
VWidth: 910
Flags: HW
LayerCount: 2
Fore
SplineSet
251 931 m 0
 273 936 295 923 300 900 c 0
 307 875 287 849 260 849 c 0
 234 849 214 875 220 900 c 0
 225 915 236 927 251 931 c 0
367 931 m 0
 389 936 411 923 416 900 c 0
 423 875 403 849 376 849 c 0
 350 849 330 875 336 900 c 0
 341 915 352 927 367 931 c 0
279 818 m 0
 285 819 352 819 358 818 c 0
 369 814 380 805 385 796 c 0
 386 792 486 433 501 380 c 0
 501 378 521 304 546 214 c 2
 591 51 l 1
 591 41 l 2
 591 31 591 31 587 24 c 0
 576 2 552 -7 531 5 c 0
 525 8 517 16 514 22 c 0
 512 25 498 78 471 176 c 0
 448 258 430 325 429 326 c 0
 429 328 423 328 319 328 c 0
 215 328 208 328 208 326 c 0
 207 325 190 258 167 176 c 0
 140 78 125 25 123 22 c 0
 120 16 112 8 106 5 c 0
 85 -7 61 2 50 24 c 0
 46 31 46 31 46 41 c 2
 46 51 l 1
 91 214 l 2
 116 304 137 378 137 380 c 0
 152 433 251 792 252 796 c 0
 257 805 268 814 279 818 c 0
362 568 m 2
 338 654 319 725 319 725 c 1
 319 725 299 654 275 568 c 2
 231 411 l 1
 275 411 l 1
 362 411 l 1
 406 411 l 1
 362 568 l 2
EndSplineSet
EndChar

StartChar: Odieresis
Encoding: 214 214 94
Width: 698
VWidth: 910
Flags: HW
LayerCount: 2
Fore
SplineSet
281 931 m 0
 303 936 325 923 330 900 c 0
 337 875 317 849 290 849 c 0
 264 849 244 875 250 900 c 0
 255 915 266 927 281 931 c 0
398 931 m 0
 420 936 442 923 447 900 c 0
 454 875 434 849 407 849 c 0
 381 849 361 875 367 900 c 0
 372 915 383 927 398 931 c 0
306 824 m 0
 325 825 372 825 390 824 c 0
 471 819 527 800 569 764 c 0
 611 727 639 665 650 582 c 0
 656 536 657 513 657 410 c 0
 657 307 656 283 650 238 c 0
 635 132 598 66 534 31 c 0
 488 6 433 -5 350 -5 c 0
 266 -5 210 6 164 31 c 0
 129 51 103 78 83 117 c 0
 59 163 47 219 42 303 c 0
 40 329 40 490 42 516 c 0
 47 611 63 673 94 721 c 0
 134 785 201 818 306 824 c 0
400 740 m 0
 389 741 329 742 319 741 c 0
 259 737 223 729 196 710 c 0
 158 685 134 630 127 542 c 0
 123 507 124 491 124 410 c 0
 124 329 123 312 127 277 c 0
 132 211 147 164 170 133 c 0
 191 106 224 89 274 82 c 0
 297 78 312 78 350 78 c 0
 387 78 401 78 424 82 c 0
 491 92 526 115 547 167 c 0
 562 202 569 243 573 310 c 0
 575 335 575 484 573 509 c 0
 568 599 554 651 528 686 c 0
 504 717 464 735 400 740 c 0
EndSplineSet
EndChar

StartChar: Udieresis
Encoding: 220 220 95
Width: 607
VWidth: 910
Flags: HW
LayerCount: 2
Fore
SplineSet
236 931 m 0
 258 936 280 923 285 900 c 0
 292 875 272 849 245 849 c 0
 219 849 199 875 205 900 c 0
 210 915 221 927 236 931 c 0
352 931 m 0
 374 936 396 923 401 900 c 0
 408 875 388 849 361 849 c 0
 335 849 315 875 321 900 c 0
 326 915 337 927 352 931 c 0
92 817 m 0
 113 823 135 812 142 790 c 0
 143 787 144 699 144 477 c 0
 145 190 145 166 146 155 c 0
 151 120 160 104 182 93 c 0
 197 86 213 82 241 79 c 0
 256 77 353 77 368 79 c 0
 395 82 411 86 426 93 c 0
 448 104 457 120 462 155 c 0
 463 166 463 190 464 477 c 2
 465 787 l 1
 467 792 l 2
 472 806 481 814 496 817 c 0
 518 823 541 810 546 786 c 0
 547 782 547 700 547 470 c 0
 546 129 547 154 541 126 c 0
 535 93 521 65 501 46 c 0
 490 34 478 27 462 19 c 0
 437 6 412 0 372 -4 c 0
 355 -6 253 -6 237 -4 c 0
 196 0 171 6 146 19 c 0
 130 27 118 34 107 46 c 0
 87 65 73 93 67 126 c 0
 61 154 62 129 61 470 c 0
 61 692 61 782 62 786 c 0
 65 801 77 813 92 817 c 0
EndSplineSet
EndChar

StartChar: adieresis
Encoding: 228 228 96
Width: 516
VWidth: 910
Flags: HW
LayerCount: 2
Fore
SplineSet
190 726 m 0
 212 731 234 718 239 695 c 0
 246 670 226 644 199 644 c 0
 173 644 153 670 159 695 c 0
 164 710 175 722 190 726 c 0
307 726 m 0
 329 731 351 718 356 695 c 0
 363 670 343 644 316 644 c 0
 290 644 270 670 276 695 c 0
 281 710 292 722 307 726 c 0
196 619 m 0
 204 619 232 620 258 620 c 0
 295 619 307 619 317 618 c 0
 359 613 387 600 411 576 c 0
 434 553 448 523 454 478 c 0
 455 468 455 446 456 253 c 0
 456 94 456 38 455 34 c 0
 452 19 440 6 425 1 c 0
 411 -2 396 2 386 12 c 2
 381 16 l 1
 374 13 l 2
 357 5 335 -1 311 -4 c 0
 303 -5 288 -5 259 -5 c 0
 230 -5 214 -5 207 -4 c 0
 161 1 131 14 106 38 c 0
 79 64 66 102 62 157 c 0
 61 175 61 234 62 252 c 0
 66 307 79 345 106 371 c 0
 131 395 161 408 207 413 c 0
 223 415 298 415 314 413 c 0
 335 410 355 406 368 400 c 0
 371 399 372 398 373 398 c 0
 374 398 372 459 371 471 c 0
 366 502 358 519 340 527 c 0
 324 534 311 536 264 537 c 0
 212 537 179 537 158 532 c 0
 144 529 145 529 143 521 c 0
 140 507 133 496 119 490 c 0
 113 487 112 487 103 487 c 0
 93 487 92 487 86 490 c 0
 77 495 70 500 66 508 c 0
 61 518 59 528 63 543 c 0
 68 569 86 591 111 603 c 0
 128 611 159 617 196 619 c 0
308 330 m 0
 298 331 234 332 220 331 c 0
 207 330 199 329 189 326 c 0
 162 319 151 301 146 261 c 0
 144 242 144 167 146 148 c 0
 151 107 163 90 193 83 c 0
 208 78 218 78 259 78 c 0
 300 78 309 78 324 83 c 0
 354 90 366 107 371 148 c 0
 373 167 373 242 371 261 c 0
 365 308 351 325 308 330 c 0
EndSplineSet
EndChar

StartChar: odieresis
Encoding: 246 246 97
Width: 576
VWidth: 910
Flags: HW
LayerCount: 2
Fore
SplineSet
220 726 m 0
 242 731 264 718 269 695 c 0
 276 670 256 644 229 644 c 0
 203 644 183 670 189 695 c 0
 194 710 205 722 220 726 c 0
337 726 m 0
 359 731 381 718 386 695 c 0
 393 670 373 644 346 644 c 0
 320 644 300 670 306 695 c 0
 311 710 322 722 337 726 c 0
254 619 m 0
 268 620 331 619 344 618 c 0
 399 612 436 597 466 572 c 0
 491 549 511 515 522 471 c 0
 533 431 536 393 536 308 c 0
 536 222 533 184 522 145 c 0
 502 67 461 23 389 5 c 0
 360 -2 338 -5 289 -5 c 0
 239 -5 217 -2 188 5 c 0
 132 20 94 48 70 97 c 0
 53 133 44 177 41 239 c 0
 40 264 40 350 41 376 c 0
 44 437 53 481 70 517 c 0
 87 553 111 577 145 594 c 0
 174 609 205 616 254 619 c 0
336 535 m 0
 323 536 267 537 252 536 c 0
 206 533 177 523 160 505 c 0
 145 490 134 463 129 429 c 0
 124 401 123 366 123 308 c 0
 123 249 124 214 129 186 c 0
 134 150 148 121 164 106 c 0
 180 91 203 83 242 79 c 0
 257 77 319 77 334 79 c 0
 390 84 416 100 432 135 c 0
 447 170 453 212 453 308 c 0
 453 366 452 401 447 429 c 0
 442 465 428 493 412 508 c 0
 396 523 373 531 336 535 c 0
EndSplineSet
EndChar

StartChar: udieresis
Encoding: 252 252 98
Width: 516
VWidth: 910
Flags: HW
LayerCount: 2
Fore
SplineSet
190 726 m 0
 212 731 234 718 239 695 c 0
 246 670 226 644 199 644 c 0
 173 644 153 670 159 695 c 0
 164 710 175 722 190 726 c 0
307 726 m 0
 329 731 351 718 356 695 c 0
 363 670 343 644 316 644 c 0
 290 644 270 670 276 695 c 0
 281 710 292 722 307 726 c 0
92 613 m 0
 113 619 135 607 142 585 c 0
 143 582 144 529 144 407 c 0
 144 288 145 227 146 218 c 0
 150 165 155 139 167 116 c 0
 177 96 196 84 228 79 c 0
 236 78 243 78 268 78 c 0
 287 78 301 78 307 79 c 0
 350 84 365 99 371 143 c 0
 372 154 372 169 373 369 c 2
 374 583 l 1
 376 587 l 2
 381 601 390 610 405 613 c 0
 427 619 450 605 455 582 c 0
 456 576 456 39 455 33 c 0
 451 18 440 6 425 1 c 0
 411 -2 397 2 386 12 c 2
 381 15 l 1
 374 12 l 2
 358 5 339 -1 316 -4 c 0
 297 -6 237 -6 221 -4 c 0
 196 0 176 5 157 15 c 0
 124 30 104 52 89 86 c 0
 74 118 68 155 63 211 c 0
 61 229 60 575 62 582 c 0
 65 597 77 609 92 613 c 0
EndSplineSet
EndChar

StartChar: degree
Encoding: 176 176 99
Width: 425
VWidth: 910
Flags: HW
LayerCount: 2
Fore
SplineSet
174 818 m 0
 176 819 196 819 219 818 c 0
 269 818 283 817 308 809 c 0
 351 796 379 768 389 725 c 0
 394 705 394 697 394 661 c 0
 394 633 394 624 393 616 c 0
 388 581 377 559 359 541 c 0
 337 520 310 508 267 503 c 0
 252 501 173 501 159 503 c 0
 115 508 88 520 66 541 c 0
 48 559 37 581 32 616 c 0
 30 631 30 690 32 705 c 0
 38 747 55 775 82 793 c 0
 105 808 131 815 174 818 c 0
251 735 m 0
 236 736 187 736 172 735 c 0
 160 734 147 733 141 730 c 0
 117 722 114 712 114 661 c 0
 114 609 117 599 141 591 c 0
 154 586 175 584 213 584 c 0
 250 584 271 586 284 591 c 0
 308 599 311 609 311 661 c 0
 311 712 308 722 284 730 c 0
 277 733 266 734 251 735 c 0
EndSplineSet
EndChar

StartChar: quotesingle
Encoding: 39 39 100
Width: 121
VWidth: 910
Flags: HW
LayerCount: 2
Fore
SplineSet
50 817 m 0
 73 823 96 809 101 786 c 0
 102 783 102 762 102 716 c 0
 102 646 102 647 97 637 c 0
 82 608 39 608 24 637 c 0
 19 647 19 646 19 717 c 0
 19 773 19 782 21 787 c 0
 25 802 35 813 50 817 c 0
EndSplineSet
EndChar

StartChar: grave
Encoding: 96 96 101
Width: 152
VWidth: 910
Flags: HW
LayerCount: 2
Fore
SplineSet
72 819 m 0
 78 820 97 819 106 817 c 0
 111 816 116 814 121 812 c 0
 154 797 172 767 177 716 c 0
 179 701 179 653 177 648 c 0
 175 641 172 633 167 628 c 0
 148 607 113 613 100 638 c 0
 96 645 96 650 96 676 c 0
 95 701 94 713 91 725 c 0
 88 737 88 737 80 736 c 0
 51 734 29 761 36 787 c 0
 40 804 53 815 72 819 c 0
EndSplineSet
EndChar
